<svg id="Layer_1" data-name="Layer 1" xmlns="http://www.w3.org/2000/svg" viewBox="0 0 1602.5 486.16"><path d="M606.87,539.51H574.2c-17,0-34-.11-51,.09-3.85,0-5.91-1-7.57-4.71C492.91,484.51,470,434.22,447.24,383.83c-1.8-4-4.51-4.19-8-4.19q-94.24,0-188.5,0c-11.33,0-22.67.16-34-.07-4.1-.08-6.27,1.41-8,5.15-22.47,49.77-45.12,99.47-67.57,149.24-1.82,4-3.93,5.7-8.57,5.66-25.83-.25-51.66-.12-77.5-.12H49.36c3.29-7.45,6.17-14.1,9.17-20.69q31.47-69.09,63-138.17,36-79.34,71.95-158.73,36.93-81.42,73.9-162.82c1.61-3.56,3.58-4.83,7.53-4.82q53.25.24,106.5,0c4.19,0,6.13,1.46,7.81,5.15q44.67,98.75,89.6,197.38Q513.4,333,548,409.09q29,63.89,58,127.8C606.27,537.47,606.41,538.1,606.87,539.51ZM249,297.87H407.7c-.85-2.21-1.34-3.76-2-5.23-19.79-43.64-40.05-87.07-59.09-131-4.83-11.16-10.37-16-22.63-14.5-5.69.68-8.34,2.28-10.58,7.27q-31,69-62.38,137.79C250.23,293.9,249.75,295.78,249,297.87Z" transform="translate(-49.36 -53.48)"/><path d="M879.47,539.24c-2.16.12-3.47.27-4.78.27-26.5,0-53-.06-79.5.09-3.78,0-5.49-1.38-7-4.75-22.71-50.2-45.61-100.31-68.3-150.51-1.67-3.69-3.86-4.75-7.65-4.74-26.5.12-53-.05-79.5.18-4.58,0-6.68-1.54-8.5-5.65C614,351,603.42,328,593,304.93c-.81-1.78-1.53-3.6-2.63-6.22,2.57-.12,4.47-.28,6.36-.28h120c40.63,0,72.84-26.15,81.34-66,9.05-42.42-21-87.28-63.69-94.84a126.5,126.5,0,0,0-21.8-2q-95.25-.22-190.5,0c-4.54,0-6.82-1.38-8.65-5.5-10.54-23.73-21.36-47.34-32.07-71-.54-1.19-1-2.44-1.71-4.38,2-.14,3.52-.34,5.08-.34,80.16,0,160.34-.8,240.49.31,40.63.56,76,16.83,105.5,45,27.21,26,43.86,57.88,48.55,95.1,6.45,51.1-7.82,96.14-43.06,134.15a144.67,144.67,0,0,1-34.13,27.43c-3.75,2.15-3.72,4.08-2.13,7.55Q838.57,448.69,877,533.53C877.76,535.17,878.44,536.84,879.47,539.24Z" transform="translate(-49.36 -53.48)"/><path d="M1213,54.38c20.17,0,40.34.19,60.5-.12,5.24-.08,6.39,1.64,6.33,6.57-.24,22.66-.1,45.33-.1,68,0,6.66,0,6.66-6.49,6.67-38.51,0-77-.89-115.51.32C1080,138.27,1018,194,1004.61,266.63c-14.53,78.76,28.19,153.6,103.15,181.45a146.72,146.72,0,0,0,51.72,9.39c38-.05,76,.06,114-.1,4.67,0,6.37,1.07,6.32,6.06q-.37,35.25,0,70.51c0,4.41-1.31,5.68-5.7,5.66-36.16-.15-72.34.18-108.5-.14-62.33-.56-117.74-20.24-164.41-62-40.77-36.49-66.25-82-76.76-135.81A241.58,241.58,0,0,1,951.1,178.59Q988.3,112.59,1056,79c24.18-12,49.71-20.45,76.66-22.5,26.68-2,53.52-2.12,80.29-3.06Z" transform="translate(-49.36 -53.48)"/><path d="M1585,54.38c20.33,0,40.67.14,61-.1,4.72-.05,5.94,1.53,5.9,6q-.3,34.74,0,69.49c.05,4.85-1.7,5.78-6.09,5.76-36.33-.14-72.66-.31-109,0-47.5.36-88.11,17.28-120.53,52.3-22.3,24.08-35.81,52.56-40.68,85.17-5.79,38.81,1.51,75.2,22.13,108.16,25.57,40.89,62.67,66,110.57,74.16a160.1,160.1,0,0,0,25.8,2q55.74.31,111.48,0c4.7,0,6.35,1.13,6.3,6.09q-.37,35.24,0,70.49c0,4.41-1.3,5.68-5.69,5.66-36.16-.15-72.32.28-108.48-.16-71.81-.88-133.17-26.42-182.05-79.59-32.61-35.48-53.09-77.27-60.06-125.06-11.73-80.38,10.71-150.36,67.16-208.59,36.91-38.08,82.38-61,135-68.78,12.94-1.91,26.13-2.52,39.22-2.92C1552.94,54,1569,54.38,1585,54.38Z" transform="translate(-49.36 -53.48)"/></svg>