<svg id="Layer_1" data-name="Layer 1" xmlns="http://www.w3.org/2000/svg" viewBox="0 0 253.57 90.11"><path d="M61.26,11.54H77.12V79.66H61.26V72.54a26.15,26.15,0,0,1-20.38,9.22c-21,0-33-17.47-33-36.24C7.87,23.35,23.08,9.76,41,9.76a24.84,24.84,0,0,1,20.22,9.71ZM24.05,45.84c0,11.81,7.44,21.68,18.93,21.68,10,0,19.25-7.28,19.25-21.52C62.23,31.12,53,24,43,24,31.49,24,24.05,33.71,24.05,45.84Zm72-34.3h15.85v6.15A27.33,27.33,0,0,1,118.49,12a18.31,18.31,0,0,1,9.71-2.27A23.48,23.48,0,0,1,140.65,13l-6.47,14.4A14.32,14.32,0,0,0,126.09,25c-3.4,0-6.79.49-9.87,3.72-4.37,4.69-4.37,11.17-4.37,15.7V79.66H96Zm54.89,0h15.86v6.31a21,21,0,0,1,16.83-8.09,20,20,0,0,1,17.63,10c5.67-8.09,14.24-10,20.23-10,8.25,0,15.53,3.88,19.41,10.68,1.3,2.26,3.56,7.28,3.56,17.15V79.66H228.56V42.12c0-7.6-.81-10.68-1.46-12.13-1-2.59-3.4-6-9.06-6a11.71,11.71,0,0,0-9.38,5c-2.76,3.89-3.08,9.71-3.08,15.54V79.66H189.72V42.12c0-7.6-.8-10.68-1.45-12.13-1-2.59-3.4-6-9.06-6a11.72,11.72,0,0,0-9.39,5c-2.75,3.89-3.07,9.71-3.07,15.54V79.66H150.89Z" fill="#333e48"/></svg>