<svg id="svg24885" xmlns="http://www.w3.org/2000/svg" viewBox="0 0 250 57.21"><g id="g26531"><g id="q57"><g id="xfrm58"><path id="path3190" d="M30.36,39.16c0-3.14-2.31-5.32-7.18-5.32H13.42V44.56h10c4.07,0,6.94-1.45,6.94-5.4ZM28.61,17.89a4.91,4.91,0,0,0-5.19-5.16h-10V22.88h9.76A5.11,5.11,0,0,0,28.61,17.89Zm16.3,22.8c0,9.19-8.47,15.23-17,15.23H0V1.37H25.57c9.83,0,16.94,4.91,16.94,15A11.83,11.83,0,0,1,35,27.56c0,.08,9.91,2.34,9.91,13.13" transform="translate(0 0)" fill="#ec1b24" fill-rule="evenodd"/></g></g><g id="q59"><g id="xfrm60"><path id="path3194" d="M86.65,28.61c0-8.55-3.92-15.48-11.66-15.48S63.4,20.06,63.4,28.61,67.24,44.16,75,44.16,86.65,37.23,86.65,28.61Zm13.42,0c0,16-9.19,28.6-25.08,28.6S49.9,44.64,49.9,28.61,59.17,0,75,0s25.09,12.65,25.09,28.61" transform="translate(0 0)" fill="#ec1b24" fill-rule="evenodd"/></g></g><g id="q61"><g id="xfrm62"><path id="path3198" d="M146.93,39.4c0,12-10.87,17.81-21.09,17.81-11.82,0-17.9-4.51-22.69-10.23l8.7-8.54a17.2,17.2,0,0,0,13.83,7c4.4,0,7.35-2.18,7.35-5.4,0-3.47-2.61-4.55-9.75-6l-1.92-.4c-8.6-1.8-15.66-6.69-15.66-16.44C105.7,6.45,114.41,0,125.92,0c9.75,0,16.06,4.19,19.9,8.54l-8.48,8.38a15.57,15.57,0,0,0-11.18-5.08c-3.11,0-6.63,1.46-6.63,5.08,0,3.31,3.66,4.5,8.31,5.48l1.92.4c7.78,1.64,17.17,4,17.17,16.6" transform="translate(0 0)" fill="#ec1b24" fill-rule="evenodd"/></g></g><g id="q63"><g id="xfrm64"><path id="path3202" d="M198.82,45.37c-5.59,8.05-10.78,11.84-21.57,11.84C161.91,57.21,152,44.48,152,28.28,152,12.89,161,.08,177.41.08c9,0,15.5,3.54,21,11.85l-11,7.33c-2.24-3.87-5.11-6.13-9.91-6.13-6.07,0-11.91,5.43-11.91,15.15,0,10.9,6.32,15.88,12.31,15.88,5.19,0,7.59-2.58,9.83-6.29l11.1,7.5" transform="translate(0 0)" fill="#ec1b24" fill-rule="evenodd"/></g></g><g id="q65"><g id="xfrm66"><path id="path3206" d="M250,55.92H235.62V34.41H219.07V55.92h-14.3V1.37h14.3V21.43h16.55V1.37H250V55.92" transform="translate(0 0)" fill="#ec1b24" fill-rule="evenodd"/></g></g></g></svg>