<svg viewBox="0 0 180 45" preserveAspectRatio="xMinYMin auto" version="1.1" xmlns="http://www.w3.org/2000/svg" xmlns:xlink="http://www.w3.org/1999/xlink">
    <title>Cambridge Consultants</title>
    <defs>
        <polygon id="path-1" points="0 56.25 191.314286 56.25 191.314286 0 0 0"></polygon>
    </defs>
    <g id="Logos/CC-logo-white" stroke="none" fill="none" stroke-width="1" fill-rule="evenodd">
        <g id="CC-logo-white" transform="translate(-5.485714, -5.284091)">
            <path d="M64.9452188,30.6024785 C63.6442118,30.0358201 62.2645754,29.8295455 60.8599363,29.8295455 C55.3162155,29.8295455 51.2571429,33.5099276 51.2571429,39.0421783 C51.2571429,44.754621 55.0827413,48.4090909 60.8337265,48.4090909 C61.9012591,48.4090909 63.5916198,48.3313544 64.9714286,47.7658892 L64.8153767,45.2696256 C63.9038959,45.8102014 62.1609432,46.1436503 60.8599363,46.1436503 C57.0867575,46.1436503 54.0152086,43.33985 54.0152086,39.1187215 C54.0152086,35.0803422 56.8008636,32.0949861 60.9897783,32.0949861 C62.3169951,32.0949861 63.5916198,32.4297988 64.7367473,33.0989127 L64.9452188,30.6024785 Z" id="Fill-1" fill="#FFFFFF"></path>
            <path d="M66.5142857,41.6760507 C66.5142857,45.4509364 69.244943,48.5795455 73.2129747,48.5795455 C77.155057,48.5795455 79.8857143,45.4509364 79.8857143,41.6760507 C79.8857143,37.6680396 77.2069557,34.7727273 73.2129747,34.7727273 C69.1928736,34.7727273 66.5142857,37.6680396 66.5142857,41.6760507 M69.0857143,41.7613636 C69.0857143,39.2505956 70.6078906,36.8181818 73.2129896,36.8181818 C75.7933058,36.8181818 77.3142857,39.2505956 77.3142857,41.7613636 C77.3142857,44.1167947 76.0508759,46.7045455 73.2129896,46.7045455 C70.3491241,46.7045455 69.0857143,44.1167947 69.0857143,41.7613636" id="Fill-3" fill="#FFFFFF"></path>
            <path d="M82.2857143,48.2386364 L84.7151421,48.2386364 L84.7151421,42.1504882 C84.7151421,38.9524331 85.956488,36.7331233 88.7219424,36.7331233 C90.8413762,36.8630074 91.5134294,38.358384 91.5134294,41.4275804 L91.5134294,48.2386364 L93.9428571,48.2386364 L93.9428571,40.4228583 C93.9428571,36.8879588 92.4175499,34.7727273 89.0059037,34.7727273 C87.1704312,34.7727273 85.4132279,35.6762765 84.6889381,37.1713114 L84.638243,37.1713114 L84.638243,35.0820566 L82.2857143,35.0820566 L82.2857143,48.2386364 Z" id="Fill-5" fill="#FFFFFF"></path>
            <path d="M96.5919025,47.8561256 C97.6938235,48.4517521 98.9506385,48.5795455 100.180449,48.5795455 C102.513369,48.5795455 104.742857,47.2880791 104.742857,44.4692599 C104.742857,40.2536219 99.0785279,41.0303176 99.0785279,38.3406621 C99.0785279,37.2552753 100.154633,36.7379351 101.385633,36.7379351 C101.948822,36.7379351 103.383968,37.0740349 103.9227,37.4101348 L104.128037,35.2888684 C103.179821,35.0046739 102.256402,34.7727273 101.128495,34.7727273 C98.5397959,34.7727273 96.5142857,36.091431 96.5142857,38.831964 C96.5142857,42.5288913 102.179974,42.322983 102.179974,44.7272448 C102.179974,46.1504445 100.821085,46.6155368 99.7193337,46.6155368 C99.0268966,46.6155368 97.6678381,46.3041048 96.7197919,45.6838104 L96.5919025,47.8561256 Z" id="Fill-7" fill="#FFFFFF"></path>
            <path d="M118.8,35.1136364 L116.370572,35.1136364 L116.370572,41.2023254 C116.370572,44.4006647 115.129055,46.6201717 112.363772,46.6201717 C110.244338,46.4901051 109.572114,44.9947665 109.572114,41.9239301 L109.572114,35.1136364 L107.142857,35.1136364 L107.142857,42.9301089 C107.142857,46.4641259 108.668164,48.5795455 112.079811,48.5795455 C113.915283,48.5795455 115.672315,47.6771123 116.396605,46.1819447 L116.447471,46.1819447 L116.447471,48.271385 L118.8,48.271385 L118.8,35.1136364 Z" id="Fill-9" fill="#FFFFFF"></path>
            <mask id="mask-2" fill="white">
                <use xlink:href="#path-1"></use>
            </mask>
            <g id="Clip-12"></g>
            <polygon id="Fill-11" fill="#FFFFFF" mask="url(#mask-2)" points="121.714286 48.0681818 124.114286 48.0681818 124.114286 28.8068182 121.714286 28.8068182"></polygon>
            <path d="M135.223143,34.9966194 L131.737874,34.9966194 L131.737874,31.1931818 L129.311562,31.963675 L129.311562,34.9966194 L126.342857,34.9966194 L126.342857,36.9495796 L129.311562,36.9495796 L129.311562,44.606845 C129.311562,47.2279858 130.861083,48.4090909 133.365393,48.4090909 C134.139385,48.4090909 134.887376,48.2044659 135.428571,48.0504013 L135.428571,45.9951286 C135.068345,46.2256297 134.525781,46.4574926 133.77779,46.4574926 C132.668032,46.4574926 131.737874,45.6350771 131.737874,44.1186049 L131.737874,36.9495796 L135.223143,36.9495796 L135.223143,34.9966194 Z" id="Fill-13" fill="#FFFFFF" mask="url(#mask-2)"></path>
            <path d="M139.124247,38.0822595 C140.112399,37.2549193 141.594971,36.7374462 142.973799,36.7374462 C145.418157,36.7374462 146.250693,37.9012039 146.250693,40.1764751 C145.288563,40.1256014 144.61216,40.1256014 143.650203,40.1256014 C141.126917,40.1256014 137.485714,41.1588346 137.485714,44.4683668 C137.485714,47.3376787 139.488557,48.5795455 142.348579,48.5795455 C144.585965,48.5795455 145.88621,47.3638863 146.459042,46.5625825 L146.511431,46.5625825 L146.511431,48.269507 L148.8,48.269507 C148.747611,47.8811881 148.69505,47.1826594 148.69505,45.6841972 L148.69505,40.2270063 C148.69505,36.634671 147.160261,34.7727273 143.363097,34.7727273 C141.673554,34.7727273 140.21597,35.2898577 138.994481,36.0132237 L139.124247,38.0822595 Z M146.228571,43.1271459 C146.228571,45.0593425 144.953086,46.5340909 142.530649,46.5340909 C141.411472,46.5340909 140.057143,45.796043 140.057143,44.4236983 C140.057143,42.1354466 143.337725,41.9318182 144.665658,41.9318182 C145.186514,41.9318182 145.707543,41.98302 146.228571,41.98302 L146.228571,43.1271459 Z" id="Fill-14" fill="#FFFFFF" mask="url(#mask-2)"></path>
            <path d="M151.371429,48.2386364 L153.800856,48.2386364 L153.800856,42.1504882 C153.800856,38.9524331 155.042374,36.7331233 157.807657,36.7331233 C159.92709,36.8630074 160.599315,38.358384 160.599315,41.4275804 L160.599315,48.2386364 L163.028571,48.2386364 L163.028571,40.4228583 C163.028571,36.8879588 161.503264,34.7727273 158.091618,34.7727273 C156.256317,34.7727273 154.499113,35.6762765 153.774824,37.1713114 L153.723957,37.1713114 L153.723957,35.0820566 L151.371429,35.0820566 L151.371429,48.2386364 Z" id="Fill-15" fill="#FFFFFF" mask="url(#mask-2)"></path>
            <path d="M173.451715,34.9966194 L169.966446,34.9966194 L169.966446,31.1931818 L167.540133,31.963675 L167.540133,34.9966194 L164.571429,34.9966194 L164.571429,36.9495796 L167.540133,36.9495796 L167.540133,44.606845 C167.540133,47.2279858 169.089484,48.4090909 171.592597,48.4090909 C172.367956,48.4090909 173.115948,48.2044659 173.657143,48.0504013 L173.657143,45.9951286 C173.296916,46.2256297 172.754353,46.4574926 172.006361,46.4574926 C170.896603,46.4574926 169.966446,45.6350771 169.966446,44.1186049 L169.966446,36.9495796 L173.451715,36.9495796 L173.451715,34.9966194 Z" id="Fill-16" fill="#FFFFFF" mask="url(#mask-2)"></path>
            <path d="M176.13459,47.8561256 C177.236511,48.4517521 178.493496,48.5795455 179.723136,48.5795455 C182.056057,48.5795455 184.285714,47.2880791 184.285714,44.4692599 C184.285714,40.2536219 178.621385,41.0303176 178.621385,38.3406621 C178.621385,37.2552753 179.697321,36.7379351 180.927131,36.7379351 C181.491509,36.7379351 182.926656,37.0740349 183.465388,37.4101348 L183.670724,35.2888684 C182.722678,35.0046739 181.799089,34.7727273 180.671352,34.7727273 C178.082653,34.7727273 176.057143,36.091431 176.057143,38.831964 C176.057143,42.5288913 181.722661,42.322983 181.722661,44.7272448 C181.722661,46.1504445 180.363772,46.6155368 179.260662,46.6155368 C178.569584,46.6155368 177.210695,46.3041048 176.262479,45.6838104 L176.13459,47.8561256 Z" id="Fill-17" fill="#FFFFFF" mask="url(#mask-2)"></path>
            <path d="M64.9452188,7.41935321 C63.6442118,6.85401702 62.2645754,6.64772727 60.8599363,6.64772727 C55.3162155,6.64772727 51.2571429,10.3270157 51.2571429,15.8596725 C51.2571429,21.572705 55.0827413,25.2272727 60.8337265,25.2272727 C61.9012591,25.2272727 63.5916198,25.1495305 64.9714286,24.5840238 L64.8153767,22.0875769 C63.9038959,22.6283629 62.1609432,22.9628592 60.8599363,22.9628592 C57.0867575,22.9628592 54.0152086,20.1576596 54.0152086,15.9375852 C54.0152086,11.897716 56.8008636,8.91214081 60.9897783,8.91214081 C62.3169951,8.91214081 63.5916198,9.24680756 64.7367473,9.91597057 L64.9452188,7.41935321 Z" id="Fill-18" fill="#FFFFFF" mask="url(#mask-2)"></path>
            <path d="M68.8383854,14.730117 C69.8267245,13.902787 71.309147,13.3853204 72.6879964,13.3853204 C75.1325632,13.3853204 75.9649395,14.5488923 75.9649395,16.8241354 C75.0027952,16.771892 74.3263818,16.771892 73.3644099,16.771892 C70.8412585,16.771892 67.2,17.8064827 67.2,21.1161451 C67.2,23.9854213 69.2027008,25.2272727 72.064145,25.2272727 C74.3001869,25.2272727 75.6018304,24.0116287 76.173292,23.2101635 L76.2256818,23.2101635 L76.2256818,24.9172381 L78.5142857,24.9172381 C78.461896,24.5287527 78.4107126,23.830404 78.4107126,22.3305901 L78.4107126,16.8762075 C78.4107126,13.2825465 76.8759004,11.4204545 73.0785067,11.4204545 C71.3877316,11.4204545 69.9315039,11.9377499 68.7086174,12.6623059 L68.8383854,14.730117 Z M75.9428571,19.7748732 C75.9428571,21.7070698 74.6670869,23.1818182 72.244107,23.1818182 C71.1246803,23.1818182 69.7714286,22.4437703 69.7714286,21.0714256 C69.7714286,18.7831739 73.0525723,18.5795455 74.3809748,18.5795455 C74.9005668,18.5795455 75.4230925,18.6307473 75.9428571,18.6307473 L75.9428571,19.7748732 Z" id="Fill-19" fill="#FFFFFF" mask="url(#mask-2)"></path>
            <path d="M81.2571429,24.8863636 L83.6784236,24.8863636 L83.6784236,18.2573164 C83.6784236,15.8054115 84.6571775,13.3808506 87.130349,13.3808506 C89.0881981,13.3808506 89.4751592,15.4193479 89.4751592,17.0444378 L89.4751592,24.8863636 L91.8962693,24.8863636 L91.8962693,18.2573164 C91.8962693,15.8054115 92.8751939,13.3808506 95.3483654,13.3808506 C97.3060438,13.3808506 97.6930049,15.4193479 97.6930049,17.0444378 L97.6930049,24.8863636 L100.114286,24.8863636 L100.114286,16.4515851 C100.114286,13.5876398 98.9042428,11.4204545 95.5547332,11.4204545 C94.3694408,11.4204545 92.385817,12.0912378 91.4847284,13.9750705 C90.7888129,12.1939488 89.2686207,11.4204545 87.7484285,11.4204545 C85.8165246,11.4204545 84.5040659,12.1172146 83.5756664,13.6395934 L83.5251413,13.6395934 L83.5251413,11.7297839 L81.2571429,11.7297839 L81.2571429,24.8863636 Z" id="Fill-20" fill="#FFFFFF" mask="url(#mask-2)"></path>
            <path d="M103.2,24.9186305 L105.522387,24.9186305 L105.522387,23.0660957 L105.573163,23.0660957 C106.219239,24.043491 107.716037,25.2272727 110.063213,25.2272727 C114.036949,25.2272727 115.714286,21.7294415 115.714286,18.1264573 C115.714286,14.6028917 113.856069,11.4900537 110.037056,11.4900537 C107.740827,11.4900537 106.424739,12.391098 105.67711,13.5994211 L105.625137,13.5994211 L105.625137,5.625 L103.2,5.625 L103.2,24.9186305 Z M113.141,18.3581692 C113.193029,20.4281298 112.10522,23.3522727 109.487952,23.3522727 C106.74001,23.3522727 105.6,20.6355887 105.6,18.4351519 C105.6,15.9766772 106.870685,13.4659091 109.512851,13.4659091 C112.156047,13.4659091 113.193029,15.9766772 113.141,18.3581692 L113.141,18.3581692 Z" id="Fill-21" fill="#FFFFFF" mask="url(#mask-2)"></path>
            <path d="M118.114286,24.8863636 L120.545378,24.8863636 L120.545378,18.9022937 C120.545378,15.6001603 121.967357,13.5356861 124.140344,13.5356861 C124.554924,13.5356861 125.046284,13.5876398 125.485714,13.7682813 L125.485714,11.601096 C124.968132,11.498385 124.605654,11.4204545 123.882239,11.4204545 C122.484939,11.4204545 121.088839,12.400738 120.442376,13.7682813 L120.390104,13.7682813 L120.390104,11.7297839 L118.114286,11.7297839 L118.114286,24.8863636 Z" id="Fill-22" fill="#FFFFFF" mask="url(#mask-2)"></path>
            <path d="M128.4,24.8863636 L130.8,24.8863636 L130.8,11.7613636 L128.4,11.7613636 L128.4,24.8863636 Z M128.228571,8.86363636 L130.971429,8.86363636 L130.971429,6.13636364 L128.228571,6.13636364 L128.228571,8.86363636 Z" id="Fill-23" fill="#FFFFFF" mask="url(#mask-2)"></path>
            <path d="M143.563328,24.9186305 L145.885714,24.9186305 L145.885714,5.625 L143.460407,5.625 L143.460407,13.5994211 L143.408604,13.5994211 C142.660975,12.391098 141.343691,11.4900537 139.048659,11.4900537 C135.229475,11.4900537 133.371429,14.6028917 133.371429,18.1264573 C133.371429,21.7033663 135.048765,25.2272727 139.022501,25.2272727 C141.369678,25.2272727 142.866304,24.043491 143.511183,23.0660957 L143.563328,23.0660957 L143.563328,24.9186305 Z M135.944645,18.3581692 C135.893653,15.9506162 136.929129,13.4659091 139.57216,13.4659091 C142.215191,13.4659091 143.485714,15.9766772 143.485714,18.4351519 C143.485714,20.6355887 142.345849,23.3522727 139.598429,23.3522727 C136.981495,23.3522727 135.893653,20.4281298 135.944645,18.3581692 L135.944645,18.3581692 Z" id="Fill-24" fill="#FFFFFF" mask="url(#mask-2)"></path>
            <path d="M161.142857,11.7283121 L158.89843,11.7283121 L158.89843,13.6784734 L158.846286,13.6784734 C158.123447,12.2675303 156.833517,11.4204545 154.51113,11.4204545 C150.537394,11.4204545 148.628571,15.0129195 148.628571,18.3738538 C148.628571,21.760627 150.486618,24.8150637 154.253657,24.8150637 C155.931164,24.8150637 157.634487,24.1478406 158.665747,22.7873855 L158.71755,22.7873855 L158.71755,24.0701537 C158.71755,26.8413818 157.194937,28.5600124 154.641235,28.5600124 C152.861148,28.5600124 151.750561,28.2264859 149.893711,27.3806001 L149.634871,29.6126099 C151.750561,30.3316809 152.963727,30.5113636 154.357604,30.5113636 C159.079311,30.5113636 161.142857,28.2264859 161.142857,24.2500065 L161.142857,11.7283121 Z M154.879966,22.8409091 C152.59916,22.8409091 151.2,20.6734763 151.2,18.1968742 C151.2,15.9516791 152.417438,13.2954545 154.879966,13.2954545 C157.47183,13.2954545 158.742857,15.6435352 158.742857,18.3775221 C158.742857,20.8283174 157.160944,22.8409091 154.879966,22.8409091 L154.879966,22.8409091 Z" id="Fill-25" fill="#FFFFFF" mask="url(#mask-2)"></path>
            <path d="M174.705475,21.9436463 C174.111018,22.4349056 172.248651,23.2624069 170.645555,23.2624069 C168.343814,23.2624069 166.300145,21.4784231 166.300145,18.8672807 L175.714286,18.8672807 C175.714286,14.6271718 174.29232,11.4204545 169.896187,11.4204545 C166.17111,11.4204545 163.714286,14.1867856 163.714286,18.0906525 C163.714286,22.3828335 165.860943,25.2272727 170.541195,25.2272727 C172.7139,25.2272727 173.774805,24.7099774 174.705475,24.3739067 L174.705475,21.9436463 Z M166.285714,17.2159091 C166.46761,15.4726384 167.454528,13.4659091 169.844469,13.4659091 C171.947886,13.4659091 173.142857,15.1559982 173.142857,17.2159091 L166.285714,17.2159091 Z" id="Fill-26" fill="#FFFFFF" mask="url(#mask-2)"></path>
            <path d="M5.82857143,9.03409091 L10.8,9.03409091 L10.8,13.2621195 C8.82061588,14.7034004 7.12953484,16.5092834 5.82857143,18.5795455 L5.82857143,9.03409091 Z" id="Fill-27" fill="#FFFFFF" mask="url(#mask-2)"></path>
            <path d="M12.3428571,5.625 L46.6285714,5.625 L46.6285714,43.4659091 L34.4462705,43.4659091 C38.7818828,39.9567292 41.5512017,34.609537 41.5512017,28.6194572 C41.5512017,18.0499086 32.9290627,9.4821556 22.2928736,9.4821556 C18.6519854,9.4821556 15.2467767,10.4861147 12.3428571,12.2307553 L12.3428571,5.625 Z" id="Fill-28" fill="#FFFFFF" mask="url(#mask-2)"></path>
            <path d="M40.9714286,45.0402744 L40.9714286,49.9431818 L5.82857143,49.9431818 L5.82857143,38.8636364 C9.2383028,44.2683216 15.321199,47.8667081 22.2577297,47.8667081 C25.9764379,47.8667081 29.4496812,46.8321931 32.3974922,45.0402744 L40.9714286,45.0402744 Z" id="Fill-29" fill="#FFFFFF" mask="url(#mask-2)"></path>
        </g>
    </g>
</svg>
