<svg xmlns="http://www.w3.org/2000/svg" viewBox="0 0 209.15 157"><g id="Layer_2" data-name="Layer 2"><g id="Final"><path d="M72.17,78.5A78.46,78.46,0,0,1,114.56,8.81a78.49,78.49,0,1,0,0,139.37A78.43,78.43,0,0,1,72.17,78.5Z" fill="#ffcd2c"/><path d="M130.65,78.5A39.24,39.24,0,1,1,148.54,2.08a78.49,78.49,0,0,0-35.79,152.84,39.24,39.24,0,0,0,17.9-76.42Z" fill="#00afb9"/><path d="M148.54,2.08A39.24,39.24,0,1,0,130.65,78.5a39.24,39.24,0,0,1-17.9,76.42A78.49,78.49,0,0,0,148.54,2.08Z" fill="#0081a7"/></g></g></svg>