<svg id="Layer_1" data-name="Layer 1" xmlns="http://www.w3.org/2000/svg" viewBox="0 0 37.19 36.41"><path d="M18.61,2.31a16.29,16.29,0,0,0-5.14,31.75c.81.15,1.11-.36,1.11-.79s0-1.41,0-2.77c-4.53,1-5.49-2.18-5.49-2.18a4.36,4.36,0,0,0-1.81-2.39c-1.48-1,.11-1,.11-1a3.44,3.44,0,0,1,2.5,1.68A3.48,3.48,0,0,0,14.61,28a3.51,3.51,0,0,1,1-2.18c-3.61-.41-7.42-1.81-7.42-8A6.3,6.3,0,0,1,9.9,13.38a5.83,5.83,0,0,1,.16-4.31s1.37-.44,4.48,1.67a15.37,15.37,0,0,1,8.15,0c3.11-2.11,4.48-1.67,4.48-1.67a5.83,5.83,0,0,1,.16,4.31A6.26,6.26,0,0,1,29,17.75c0,6.26-3.81,7.63-7.44,8a3.88,3.88,0,0,1,1.1,3c0,2.18,0,3.94,0,4.47s.3.94,1.12.78A16.29,16.29,0,0,0,18.61,2.31Z" fill="#fff" fill-rule="evenodd"/></svg>