<svg id="svg2501" xmlns="http://www.w3.org/2000/svg" viewBox="0 0 289.88 264.13"><g id="layer2"><path id="path3311" d="M42,17.94a37,37,0,0,0-9.81,1.37L55.31,39.88,29.41,68.63,5.78,47.69A36.87,36.87,0,0,0,53.16,90.06L83,116.5a81.24,81.24,0,0,1,24.31-30.69L78.53,60.31a37.41,37.41,0,0,0,.41-5.43v-.25A37,37,0,0,0,42,17.94ZM219.5,185.06a82.91,82.91,0,0,1-22,32.69l24.06,21.31a36.89,36.89,0,0,0,47,41.44l-24.06-21.37,25.85-28.57,23.93,21.25a36.8,36.8,0,0,0,.63-6.68v-.32a36.94,36.94,0,0,0-47.56-35.06Z" transform="translate(-5.06 -17.94)" fill="#3c3c3b" fill-rule="evenodd"/><path id="path3335" d="M258,17.94a37,37,0,0,0-36.94,36.69v.25a37.41,37.41,0,0,0,.41,5.43l-28.81,25.5A81.24,81.24,0,0,1,217,116.5l29.87-26.44a36.87,36.87,0,0,0,47.38-42.37L270.59,68.63l-25.9-28.75,23.12-20.57A37,37,0,0,0,258,17.94ZM80.5,185.06,52.63,209.75A36.95,36.95,0,0,0,5.06,244.81v.32a36.8,36.8,0,0,0,.63,6.68l23.94-21.25,25.84,28.57L31.41,280.5a36.81,36.81,0,0,0,47-41.44l24.06-21.31A82.91,82.91,0,0,1,80.5,185.06Z" transform="translate(-5.06 -17.94)" fill="#3c3c3b" fill-rule="evenodd"/></g><g id="layer12"><path id="path3383" d="M150,77.5c-38.1,0-69,34.23-69,76.47,0,26.12,11.85,49.17,29.88,63a13.56,13.56,0,0,0-1.88,6.9,13.22,13.22,0,1,0,26.34-1.56h1.82a12.36,12.36,0,0,0-.16,2,13,13,0,0,0,26,0,12.36,12.36,0,0,0-.16-2h2.32a12.36,12.36,0,0,0-.16,2,13,13,0,1,0,23.84-7.15C207,203.39,219,180.22,219,154,219,111.73,188.1,77.5,150,77.5Zm-29.66,57.06a21.9,21.9,0,0,1,11.1,3.19,24.15,24.15,0,0,1,6.75,8c1.46,3.82-.58,8.19-3.66,10.56-2.35,1.57-4.61,3.41-7.37,4.22a73,73,0,0,0-9.75,4.28,6,6,0,0,0-3.13,3.94c-1.09,1.78-.08,4.16-1.28,5.78-1.82,1.33-3.89-.26-5.31-1.41-3.12-2.29-5.86-5.45-6.66-9.34-.61-3.28-1.29-6.65-.9-10,0-4.07,2-7.84,4.5-10.94,2.84-3.87,7-7.2,11.87-7.81A17.81,17.81,0,0,1,120.34,134.56Zm59.32,0a17.81,17.81,0,0,1,3.84.44c4.9.61,9,3.94,11.88,7.81,2.5,3.1,4.45,6.87,4.5,10.94.38,3.35-.3,6.72-.91,10-.8,3.89-3.54,7.05-6.66,9.34-1.42,1.15-3.49,2.74-5.31,1.41-1.2-1.62-.19-4-1.28-5.78a6,6,0,0,0-3.13-3.94,73,73,0,0,0-9.75-4.28c-2.76-.81-5-2.65-7.37-4.22-3.08-2.37-5.12-6.74-3.66-10.56a24.15,24.15,0,0,1,6.75-8A21.9,21.9,0,0,1,179.66,134.56Zm-29.44,39.25c3.69.1,7.34,15.42,6.41,21.47-3.09,9.07-2.52-5.92-6.41-6.09-4.07,0-4.82,14.82-6.94,6.12C142.61,188.74,146.85,173.72,150.22,173.81Z" transform="translate(-5.06 -17.94)" fill="#3c3c3b"/></g></svg>