<svg id="svg5018" xmlns="http://www.w3.org/2000/svg" viewBox="0 0 648.83 527.28"><path id="path2797" d="M19,441.74h3.46V470.9H19Z" transform="translate(-15.82 -15.86)" fill="#5492cd"/><path id="path2803" d="M47.7,470.9,37.35,447h-.07V470.9H34V441.74h4.28L48.6,465.79h.07V441.74H52V470.9Z" transform="translate(-15.82 -15.86)" fill="#5492cd"/><path id="path2809" d="M67.48,470.9v-26H61.19v-3.18h16v3.18h-6.3v26Z" transform="translate(-15.82 -15.86)" fill="#5492cd"/><path id="path2815" d="M86.45,470.9V441.74H99.22v3.18H89.9v9.27h8.89v3.16H89.9v10.37h9.83v3.18Z" transform="translate(-15.82 -15.86)" fill="#5492cd"/><path id="path2829" d="M113.58,454.69h2.67c3.7,0,5.12-2.6,5.12-5.14,0-3.26-2-4.81-5-4.81h-2.75Zm-3.45-12.95h7c2.91,0,4.52.75,5.78,2a7.72,7.72,0,0,1,2,5.55c0,3.09-1.37,6.05-5.42,7v.08a3.6,3.6,0,0,1,3,2.85l3.86,11.69h-3.74L119.52,461c-.79-2.42-1.77-3.33-4.36-3.33h-1.58v13.19h-3.45Z" transform="translate(-15.82 -15.86)" fill="#5492cd"/><path id="path2835" d="M154,469.68a20.77,20.77,0,0,1-6.81,1.5c-8.68,0-12.34-7-12.34-14.91,0-9.1,5-14.82,12.15-14.82a14.13,14.13,0,0,1,6.45,1.29v3.68a14.07,14.07,0,0,0-6.41-1.8c-4.48,0-8.57,3.81-8.57,10.9,0,7.52,2.83,12.49,8.81,12.49a7.67,7.67,0,0,0,3.41-.8V458h-4.6v-3.18H154Z" transform="translate(-15.82 -15.86)" fill="#5492cd"/><path id="path2841" d="M174.38,468.18c3.61,0,6.68-3.19,6.68-12.15,0-5.89-1.73-11.58-6.37-11.58-3.62,0-6.68,3.18-6.68,12.16,0,5.88,1.73,11.57,6.37,11.57m.31-26.73c6.1,0,10,5.56,10,14.58,0,10.06-3.82,15.15-10.3,15.15-6.1,0-10-5.55-10-14.57,0-10.07,3.82-15.16,10.3-15.16" transform="translate(-15.82 -15.86)" fill="#5492cd"/><path id="path2847" d="M191.69,441.74h3.77l6.37,23.76h.08l6.72-23.76h3.46l-8.61,29.15H200Z" transform="translate(-15.82 -15.86)" fill="#5492cd"/><path id="path2853" d="M221,441.74h12.77v3.18h-9.31v9.27h8.88v3.16h-8.88v10.37h9.82v3.17H221Z" transform="translate(-15.82 -15.86)" fill="#5492cd"/><path id="path2859" d="M248.09,454.69h2.67c3.7,0,5.11-2.6,5.11-5.14,0-3.26-2-4.81-5-4.81h-2.75Zm-3.46-12.95h7c2.91,0,4.52.75,5.78,2a7.72,7.72,0,0,1,2,5.55c0,3.09-1.37,6.05-5.42,7v.08a3.6,3.6,0,0,1,3,2.85l3.86,11.69h-3.73L254,461c-.79-2.42-1.77-3.33-4.36-3.33h-1.58v13.19h-3.46Z" transform="translate(-15.82 -15.86)" fill="#5492cd"/><path id="path2865" d="M270.52,441.74h4.28l10.34,24.05h.07V441.74h3.31v29.15h-4.29L273.89,447h-.07v23.88h-3.3Z" transform="translate(-15.82 -15.86)" fill="#5492cd"/><path id="path2871" d="M300,441.74h5.35l6.88,23.18h.08l7-23.18h5.19v29.15h-3.3V445.75h-.08l-7.78,25.14h-2.52l-7.47-25.14h-.07v25.14H300Z" transform="translate(-15.82 -15.86)" fill="#5492cd"/><path id="path2877" d="M336.09,441.74h12.78v3.18h-9.32v9.27h8.89v3.16h-8.89v10.37h9.83v3.17H336.09Z" transform="translate(-15.82 -15.86)" fill="#5492cd"/><path id="path2883" d="M359.78,441.74h4.28l10.34,24.05h.07V441.74h3.31v29.15h-4.29L363.15,447h-.07v23.88h-3.3Z" transform="translate(-15.82 -15.86)" fill="#5492cd"/><path id="path2889" d="M393.28,444.92H387v-3.18h16v3.18h-6.29v26h-3.45Z" transform="translate(-15.82 -15.86)" fill="#5492cd"/><path id="path2895" d="M423,460.11l-4.21-14.52h-.08l-4.32,14.52Zm-2.24-18.37,9,29.15h-3.62l-2.19-7.6H413.43l-2.2,7.6h-3.47L417,441.74Z" transform="translate(-15.82 -15.86)" fill="#5492cd"/><path id="path2901" d="M438.52,441.74H442v26h9v3.17H438.52Z" transform="translate(-15.82 -15.86)" fill="#5492cd"/><path id="path2907" d="M478.38,455.69h1.89c4.2,0,5.73-2.09,5.73-5.35,0-4-2.12-5.6-5.65-5.6h-2Zm-3.46-13.95h6.6a7.68,7.68,0,0,1,5.94,2.25,8.41,8.41,0,0,1,2.16,6c0,5.68-3.11,8.69-8.92,8.69h-2.32v12.19h-3.46Z" transform="translate(-15.82 -15.86)" fill="#5492cd"/><path id="path2913" d="M510,460.11l-4.2-14.52h-.09l-4.31,14.52Zm-2.24-18.37,9,29.15h-3.61l-2.2-7.6H500.49l-2.2,7.6h-3.46l9.2-29.15Z" transform="translate(-15.82 -15.86)" fill="#5492cd"/><path id="path2919" d="M525.58,441.74h4.29l10.33,24.05h.08V441.74h3.3v29.15H539.3L529,447h-.08v23.88h-3.3Z" transform="translate(-15.82 -15.86)" fill="#5492cd"/><path id="path2925" d="M555.11,441.74h12.77v3.18h-9.31v9.27h8.89v3.16h-8.89v10.37h9.83v3.17H555.11Z" transform="translate(-15.82 -15.86)" fill="#5492cd"/><path id="path2931" d="M578.79,441.74h3.47v26h9v3.17H578.79Z" transform="translate(-15.82 -15.86)" fill="#5492cd"/><path id="path2937" d="M624.05,468.18c3.61,0,6.68-3.19,6.68-12.15,0-5.89-1.74-11.58-6.37-11.58-3.62,0-6.68,3.18-6.68,12.16,0,5.88,1.72,11.57,6.37,11.57m.31-26.73c6.09,0,10,5.56,10,14.58,0,10.06-3.81,15.15-10.29,15.15-6.1,0-10-5.55-10-14.57,0-10.07,3.81-15.16,10.3-15.16" transform="translate(-15.82 -15.86)" fill="#5492cd"/><path id="path2943" d="M644.73,441.74H649l10.32,24.05h.09V441.74h3.3v29.15h-4.28L648.11,447H648v23.88h-3.3Z" transform="translate(-15.82 -15.86)" fill="#5492cd"/><path id="path2947" d="M20.45,97.91H65.62V373.18H20.45Zm22.78-82c15.06,0,27.42,12.72,27.42,29.13,0,16-12.36,29.13-27.42,29.13C27.79,74.12,15.82,61,15.82,45c0-16.41,12-29.13,27.41-29.13" transform="translate(-15.82 -15.86)" fill="#5492cd"/><path id="path2953" d="M153.69,295.24c0,31.58,15.45,45.12,35.14,45.12S224,326,224,294.82V179.54C224,148,208.53,134,188.83,134S153.69,148,153.69,179.54Zm115.46-.42c0,26.68-7.73,47.19-23.56,62.36s-32.82,23-51,23c-16.22,0-29.74-4.1-40.94-12.73V426.1H108.51V179.54c0-26.66,7.72-47.17,23.56-62.34q23.75-23.4,56.76-23.39t56.76,23.39c15.83,15.17,23.56,35.68,23.56,62.34Z" transform="translate(-15.82 -15.86)" fill="#5492cd"/><path id="path2959" d="M467.28,294.82c0,26.68-7.72,47.19-23.55,62.36s-34.76,23-56.78,23-40.93-7.8-56.75-23-23.56-35.68-23.56-62.36V179.55c0-26.67,7.72-47.18,23.56-62.35Q353.93,93.82,387,93.81t56.78,23.39c15.83,15.17,23.55,35.68,23.55,62.35v5.33H422.09v-5.33C422.09,148,406.66,134,387,134s-35.12,14-35.12,45.54V295.24c0,31.58,15.44,45.12,35.12,45.12s35.14-14.36,35.14-45.54V266.93h45.19Z" transform="translate(-15.82 -15.86)" fill="#5492cd"/><path id="path2965" d="M664.65,294.82c0,26.68-7.73,47.19-23.57,62.36s-34.75,23-56.75,23-40.93-7.8-56.76-23S504,321.5,504,294.82V179.55c0-26.67,7.73-47.18,23.56-62.35q23.74-23.39,56.76-23.39t56.75,23.39c15.84,15.17,23.57,35.68,23.57,62.35v5.33H619.47v-5.33C619.47,148,604,134,584.33,134s-35.14,14-35.14,45.54V295.24c0,31.58,15.45,45.12,35.14,45.12s35.14-14.36,35.14-45.54V266.93h45.18Z" transform="translate(-15.82 -15.86)" fill="#5492cd"/><path id="path2971" d="M275.32,525c0,3.69-1.07,6.54-3.26,8.64a11.3,11.3,0,0,1-15.74,0c-2.2-2.1-3.27-5-3.27-8.64V509c0-3.71,1.07-6.55,3.27-8.65a11.15,11.15,0,0,1,15.74,0c2.19,2.1,3.26,4.94,3.26,8.65v.72h-6.26V509c0-4.38-2.14-6.32-4.88-6.32s-4.86,1.94-4.86,6.32v16c0,4.38,2.14,6.25,4.86,6.25s4.88-2,4.88-6.31v-3.87h6.26Z" transform="translate(-15.82 -15.86)" fill="#5492cd"/><path id="path2975" d="M285.48,486.85h6.26v49h-6.26Z" transform="translate(-15.82 -15.86)" fill="#5492cd"/><path id="path2979" d="M302.59,497.66h6.26v38.15h-6.26Zm3.17-11.37a3.89,3.89,0,0,1,3.79,4,3.81,3.81,0,1,1-7.6,0,3.86,3.86,0,0,1,3.81-4" transform="translate(-15.82 -15.86)" fill="#5492cd"/><path id="path2985" d="M319.92,535.81V509c0-3.71,1.08-6.55,3.27-8.65a10.81,10.81,0,0,1,7.87-3.25,9.94,9.94,0,0,1,8,4.21,9.92,9.92,0,0,1,8-4.21,10.92,10.92,0,0,1,7.92,3.25c2.19,2.1,3.27,4.94,3.27,8.65v26.88H352V509c0-4.38-2.15-6.32-4.87-6.32s-4.87,1.94-4.87,6.32v26.83H336V509c-.06-4.38-2.19-6.32-4.92-6.32s-4.86,1.94-4.86,6.32v26.83Z" transform="translate(-15.82 -15.86)" fill="#5492cd"/><path id="path2991" d="M374.5,526.08a5.09,5.09,0,0,0,4.87,5.18,5.2,5.2,0,0,0,4.88-5.18v-2.56a5.1,5.1,0,0,0-4.88-4.94,5,5,0,0,0-4.87,4.94Zm-.05-17.16v.78h-6.26v-.78c0-3.7,1.07-6.54,3.26-8.65a11.17,11.17,0,0,1,15.63,0,11.29,11.29,0,0,1,3.37,8.65V526A10.32,10.32,0,0,1,387,533.7a10.88,10.88,0,0,1-7.66,3.08,10.46,10.46,0,0,1-7.92-3.48,12.41,12.41,0,0,1,0-16.77,10.45,10.45,0,0,1,7.92-3.47,7.83,7.83,0,0,1,4.88,1.77v-5.91c0-4.39-2.25-6.26-4.88-6.26s-4.87,1.94-4.92,6.26" transform="translate(-15.82 -15.86)" fill="#5492cd"/><path id="path2997" d="M416.07,536.78a10.94,10.94,0,0,1-7.75-3.25A11.42,11.42,0,0,1,405.1,525V502.66h-7.76v-5h21.79v5h-7.77V525c0,4.32,2.08,6.25,4.71,6.31Z" transform="translate(-15.82 -15.86)" fill="#5492cd"/><path id="path3003" d="M433.67,513.63h9.75V509c0-4.38-2.2-6.32-4.93-6.32s-4.82,1.94-4.82,6.32Zm0,5.52V525c0,4.54,2.25,6.31,4.77,6.31,2.73,0,4.87-1.93,4.92-6.31h6.26c0,3.69-1.06,6.54-3.26,8.64a11.15,11.15,0,0,1-7.92,3.19,10.7,10.7,0,0,1-7.71-3.14c-2.24-2.1-3.38-5-3.38-8.75V509c0-3.71,1.08-6.55,3.27-8.65a11.21,11.21,0,0,1,15.79,0c2.2,2.1,3.27,4.94,3.27,8.65v10.17Z" transform="translate(-15.82 -15.86)" fill="#5492cd"/><path id="path3009" d="M500.39,525c0,3.69-1.07,6.54-3.26,8.64a11.3,11.3,0,0,1-15.74,0c-2.19-2.1-3.26-5-3.26-8.64V509c0-3.71,1.07-6.55,3.26-8.65a11.15,11.15,0,0,1,15.74,0c2.19,2.1,3.26,4.94,3.26,8.65v.72h-6.26V509c0-4.38-2.14-6.32-4.87-6.32s-4.87,1.94-4.87,6.32v16c0,4.38,2.14,6.25,4.87,6.25s4.87-2,4.87-6.31v-3.87h6.26Z" transform="translate(-15.82 -15.86)" fill="#5492cd"/><path id="path3015" d="M510.6,486.85h6.27v12.57a7.8,7.8,0,0,1,5.67-2.34,10.36,10.36,0,0,1,7.07,3c2.19,1.93,3.25,4.89,3.25,8.94v26.83h-6.25V509c0-4.38-2.14-6.32-4.88-6.32s-4.86,1.94-4.86,6.32v26.83H510.6Z" transform="translate(-15.82 -15.86)" fill="#5492cd"/><path id="path3021" d="M550.25,526.08a5.08,5.08,0,0,0,4.87,5.18,5.2,5.2,0,0,0,4.87-5.18v-2.56a5.1,5.1,0,0,0-4.87-4.94,5,5,0,0,0-4.87,4.94Zm-.06-17.16v.78h-6.26v-.78c0-3.7,1.07-6.54,3.27-8.65a11.17,11.17,0,0,1,15.63,0,11.29,11.29,0,0,1,3.37,8.65V526a10.37,10.37,0,0,1-3.43,7.67,10.86,10.86,0,0,1-7.65,3.08,10.43,10.43,0,0,1-7.92-3.48,12.39,12.39,0,0,1,0-16.77,10.42,10.42,0,0,1,7.92-3.47,7.78,7.78,0,0,1,4.87,1.77v-5.91c0-4.39-2.25-6.26-4.87-6.26s-4.87,1.94-4.93,6.26" transform="translate(-15.82 -15.86)" fill="#5492cd"/><path id="path3027" d="M575.76,535.81V509c0-3.71,1.08-6.55,3.27-8.65a11.14,11.14,0,0,1,15.73,0c2.2,2.1,3.27,4.94,3.27,8.65v26.83h-6.26V509c0-4.38-2.15-6.32-4.87-6.32S582,504.6,582,509v26.83Z" transform="translate(-15.82 -15.86)" fill="#5492cd"/><path id="path3033" d="M614.83,510.11a5.07,5.07,0,0,0,4.87,5.17,5,5,0,0,0,4.93-5.17v-2.56a4.9,4.9,0,0,0-9.8,0Zm10.49,20.18c3,0,5.56,2.28,5.56,7.06v5.79h-6.25v-4.72a2.57,2.57,0,0,0-2.47-2.61H619.7a10.58,10.58,0,0,1-7.87-3.41,11.77,11.77,0,0,1-3.27-8.36,12.14,12.14,0,0,1,2.58-7.56,11.77,11.77,0,0,1-2.58-7.5,12,12,0,0,1,2.26-7.18,11.58,11.58,0,0,1,5.83-4.26V493h6.26v4.61a11.07,11.07,0,0,1,5.73,4.26,12.09,12.09,0,0,1,2.24,7.12,11.77,11.77,0,0,1-3.26,8.35,10.41,10.41,0,0,1-7.92,3.46,11.32,11.32,0,0,1-3.32-.5,5.1,5.1,0,0,0-1.55,3.75c0,4.32,2.19,6.25,4.93,6.25Z" transform="translate(-15.82 -15.86)" fill="#5492cd"/><path id="path3039" d="M647.25,513.63H657V509c0-4.38-2.19-6.32-4.92-6.32s-4.82,1.94-4.82,6.32Zm0,5.52V525c0,4.54,2.25,6.31,4.76,6.31,2.74,0,4.87-1.93,4.93-6.31h6.26c0,3.69-1.07,6.54-3.26,8.64a11.17,11.17,0,0,1-7.93,3.19,10.68,10.68,0,0,1-7.7-3.14c-2.25-2.1-3.37-5-3.37-8.75V509c0-3.71,1.07-6.55,3.26-8.65a10.79,10.79,0,0,1,7.87-3.25,10.92,10.92,0,0,1,7.92,3.25c2.19,2.1,3.26,4.94,3.26,8.65v10.17Z" transform="translate(-15.82 -15.86)" fill="#5492cd"/></svg>