<svg preserveAspectRatio="xMidYMid meet" id="comp-kaqkrj5vsvgcontent" data-bbox="0.04 -0.02 1626.903 609.49" viewBox="0.04 -0.02 1626.903 609.49" xmlns="http://www.w3.org/2000/svg" data-type="color" role="img" aria-labelledby="comp-kaqkrj5v-svgtitle"><title id="comp-kaqkrj5v-svgtitle"></title>
    <g>
        <path d="M255.99 171.98c0 68.75-50.5 124.48-128.74 124.48-71.1 0-126.13-54.05-126.13-122.8 0-72.31 56.34-122.8 127.44-122.8s127.43 52.35 127.43 121.12zm-127.43 78.13c42.21 0 72.29-34.23 72.29-76.46s-27-76.46-72.29-76.46c-44.44 0-72.29 34.23-72.29 76.46s29.78 76.46 72.29 76.46z" fill="#ffffff" data-color="1"></path>
        <path d="M873.81 171.98c0 68.75-50.5 124.48-128.74 124.48-71.1 0-126.13-54.05-126.13-122.8 0-72.31 56.33-122.8 127.44-122.8s127.43 52.35 127.43 121.12zm-127.44 78.13c42.22 0 72.3-34.23 72.3-76.46s-27-76.46-72.3-76.46c-44.43 0-72.29 34.23-72.29 76.46s29.79 76.46 72.29 76.46z" fill="#ffffff" data-color="1"></path>
        <path d="M1154.93 196.45V78.02c4.47-34 52.44-15.78 52.44-15.78v126.89c0 39.61 27.11 59 60.55 59s60.54-18.69 60.54-59c0 0 .15-86.7.14-111 4.47-34.05 52.44-15.79 52.44-15.79v81.61c6.83 100.6 103 108.11 103 108.11 95.82 13.23 87.43-26.08 87.43-26.08-2.47-19.8-17.24-24.28-42.72-27.55-15.83-2-29.57-3.42-29.57-3.42-102.67-6.49-92.57-74.22-92.57-74.22 1.3-57.3 62.61-66 62.61-66 54.16-9.64 92.41-.18 92.41-.18 84.3 17.54 42.79 57.49 35.82 59.76 0 0-22.45-20.56-75-23.51-64.68-4.13-63.54 26.41-63.54 26.41-2.11 22.27 26.41 26.34 26.41 26.34l69.33 9.71c81.89 11.41 71.91 69.51 71.91 69.51-5.38 72.66-91.95 73.19-91.95 73.19-118.41 6.87-163-54.61-163-54.61-16.59 33-49.72 55.08-104.78 55.08-65.64 0-111.92-36.8-111.92-102.82" fill="#ffffff" data-color="1"></path>
        <path d="M385.47 54.75c-94.7 6.76-116.31 94.77-114 120.35-1.32 38.66 25.72 121.35 130.33 121.4a233 233 0 0037.92-3.63v-46.89a254.53 254.53 0 01-36.74 3.26c-48.81 1.22-76.56-38.84-76.37-74.14 0-41 33.49-74.57 76.37-74.14h84.61l.21 115.84s-6.11 98.15 118 77.54v-46.76c-68.8 14.82-65.08-28.47-65.08-28.47V100.98h65.08v-46.3h-65.13V-.02h-52.88v54.7z" fill="#ffffff" data-color="1"></path>
        <path d="M941.87 366.86c-4.46 34-52.44 15.78-52.44 15.78v-209c3-66.67 42.92-121 125-122.8 72.51-1.62 124.59 52.37 125 121.12.48 72.85-50.6 127-126.08 123.8-26.91-1.49-53.19-12.08-71.35-35.41.1.01-.14 82.17-.13 106.51zm71.25-116.52c41.79 0 71.56-34.23 71.56-76.46s-26.69-76.46-71.56-76.46c-44 0-71.56 34.23-71.56 76.46s29.48 76.46 71.56 76.46z" fill="#ffffff" data-color="1"></path>
        <path d="M110.54 581.81c-11.47 13.34-27.34 20.38-45.9 20.38-17.14 0-31.63-6.08-41.91-17.59-9.65-10.81-15-26-15-42.75v-2.45h114.11v-1c-.58-17.38-6.74-33.31-17.36-44.85-11.21-12.17-26.26-18.61-43.54-18.61-35.29 0-60.9 28.16-60.9 67 0 39.76 26.58 67.53 64.64 67.53 20.86 0 38.65-7.69 51.44-22.23l.62-.7-5.5-5.56zM8.47 532.21c4.17-30.49 24.65-50.12 52.43-50.12 14.29 0 26.91 5.21 36.51 15.06 8.8 9.05 14.35 21.47 15.68 35.06z" fill="#ffffff" data-color="1"></path>
        <path d="M270.54 581.81c-11.47 13.34-27.34 20.38-45.9 20.38-17.14 0-31.63-6.08-41.91-17.59-9.65-10.81-15-26-15-42.75v-2.45h114.11v-1c-.58-17.38-6.74-33.31-17.36-44.85-11.21-12.17-26.26-18.61-43.54-18.61-35.29 0-60.9 28.16-60.9 67 0 39.76 26.58 67.53 64.64 67.53 20.86 0 38.65-7.69 51.44-22.23l.62-.7-5.5-5.56zm-102.07-49.6c4.17-30.49 24.65-50.12 52.43-50.12 14.29 0 26.91 5.21 36.51 15.06 8.8 9.05 14.35 21.47 15.68 35.06z" fill="#ffffff" data-color="1"></path>
        <path d="M1065.99 581.81c-11.47 13.34-27.34 20.38-45.89 20.38-17.15 0-31.64-6.08-41.92-17.59-9.65-10.81-15-26-15-42.75v-2.45h114.08v-1c-.58-17.38-6.75-33.31-17.37-44.85-11.2-12.17-26.26-18.61-43.54-18.61-35.29 0-60.9 28.16-60.9 67 0 39.76 26.58 67.53 64.65 67.53 20.85 0 38.64-7.69 51.43-22.23l.62-.7-5.45-5.46zm-102.07-49.6c4.18-30.49 24.65-50.12 52.43-50.12 14.29 0 26.91 5.21 36.51 15.06 8.81 9.05 14.35 21.47 15.68 35.06z" fill="#ffffff" data-color="1"></path>
        <path d="M569.73 475.34c-15.44 0-30.09 6.1-40.18 16.73-9.62 10.26-14.08 23.56-14.08 41.91v73h7.76v-73c0-16.19 3.94-28 12.4-37 8.31-8.87 21.38-14.37 34.11-14.37h1v-7.19z" fill="#ffffff" data-color="1"></path>
        <path d="M493.7 484.04v-7.18h-51.84v-36.08h-7.76v109.08c0 18.3 4.48 31.61 14.09 41.87 10.09 10.63 24.74 16.73 40.19 16.73h1v-7.19h-1c-12.74 0-25.81-5.5-34.12-14.37-8.46-9.08-12.4-20.86-12.4-37v-65.86z" fill="#ffffff" data-color="1"></path>
        <path fill="#ffffff" d="M143.54 400.8v206.48h-7.76V400.8h7.76z" data-color="1"></path>
        <path d="M1519.99 581.81c-11.47 13.34-27.34 20.38-45.89 20.38-17.15 0-31.64-6.08-41.92-17.59-9.65-10.81-15-26-15-42.75v-2.45h114.08v-1c-.58-17.38-6.75-33.31-17.37-44.85-11.2-12.17-26.26-18.61-43.54-18.61-35.29 0-60.9 28.16-60.9 67 0 39.76 26.58 67.53 64.65 67.53 20.85 0 38.64-7.69 51.43-22.23l.62-.7-5.45-5.46zm-102.07-49.6c4.18-30.49 24.65-50.12 52.43-50.12 14.29 0 26.91 5.21 36.51 15.06 8.81 9.05 14.35 21.47 15.68 35.06z" fill="#ffffff" data-color="1"></path>
        <path fill="#ffffff" d="M1392.99 400.13v206.48h-7.76V400.13h7.76z" data-color="1"></path>
        <path d="M1585.16 536.07c-17.59-5.73-34.2-11.14-34.2-27.34 0-17.49 16-26.65 31.83-26.65 13.17 0 24.07 4.07 33.32 12.42l.73.66 5.13-5.53-.81-.68c-8.81-7.3-19.56-14.05-38.37-14.05-23.31 0-39.59 13.91-39.59 33.83 0 21.58 20 28.07 39.28 34.34 18.75 6.09 36.46 11.85 36.46 30.46 0 17.94-17.21 28.66-33.84 28.66-16.34 0-27.69-4.76-40.5-17l-.68-.65-5.48 5.09.73.74c12.8 12.79 27.82 19 45.93 19 23.33 0 41.6-15.75 41.6-35.85 0-23.9-22.07-31.1-41.54-37.45z" fill="#ffffff" data-color="1"></path>
        <path d="M1187.03 491.98c-10.08-10.63-24.72-16.72-40.16-16.73-15.44 0-30.08 6.1-40.17 16.73a47.38 47.38 0 00-6.33 8.41v-100h-7.76v206.48h7.76v-73c0-16.19 3.94-28 12.4-37 8.31-8.87 21.38-14.37 34.11-14.37s25.8 5.5 34.11 14.37c8.46 9.08 12.4 20.85 12.4 37v73h7.76v-73c-.03-18.33-4.51-31.63-14.12-41.89z" fill="#ffffff" data-color="1"></path>
        <path d="M412.58 573.29l-.52.89c-10.29 17.54-29.23 28-50.69 28-34.73 0-60.92-25.94-60.92-60.34a59.94 59.94 0 0117.21-42.53 57.85 57.85 0 0141.41-17.23c19.86 0 37.31 8.66 47.85 23.76l.59.85 6.24-4.68-.61-.81c-13.14-17.21-32-26.31-54.65-26.31a64.78 64.78 0 00-46.83 19.67 67.35 67.35 0 00-19 47.28c0 38.5 29.53 67.53 68.68 67.53 24.91 0 45.7-11.42 57-31.32l.47-.84z" fill="#ffffff" data-color="1"></path>
        <path d="M736.58 573.29l-.52.89c-10.29 17.54-29.23 28-50.69 28-34.73 0-60.92-25.94-60.92-60.34a59.94 59.94 0 0117.21-42.53 57.85 57.85 0 0141.41-17.23c19.86 0 37.31 8.66 47.85 23.76l.59.85 6.24-4.68-.61-.81c-13.14-17.21-32-26.31-54.65-26.31a64.78 64.78 0 00-46.83 19.67 67.35 67.35 0 00-19 47.28c0 38.5 29.53 67.53 68.68 67.53 24.91 0 45.7-11.42 57-31.32l.47-.84z" fill="#ffffff" data-color="1"></path>
        <path fill="#ffffff" d="M946.65 478.11l-52.63 115.52-52.37-114.93-.27-.59h-8.25l58.8 128.72h4.17l58.8-128.72h-8.25z" data-color="1"></path>
        <path d="M593.17 434.23a7.35 7.35 0 107.34 7.34 7.22 7.22 0 00-7.34-7.34z" fill="#ffffff" data-color="1"></path>
        <path fill="#ffffff" d="M597.05 478.15v128.72h-7.76V478.15h7.76z" data-color="1"></path>
        <path d="M1365.02 573.29l-.52.89c-10.29 17.54-29.24 28-50.69 28-34.73 0-60.92-25.94-60.92-60.34a59.94 59.94 0 0117.21-42.53 57.84 57.84 0 0141.4-17.23c19.87 0 37.31 8.66 47.86 23.76l.59.85 6.24-4.68-.61-.81c-13.15-17.21-32-26.31-54.65-26.31a64.78 64.78 0 00-46.83 19.67 67.35 67.35 0 00-19 47.28c0 38.5 29.53 67.53 68.68 67.53 24.91 0 45.7-11.42 57-31.32l.47-.84z" fill="#ffffff" data-color="1"></path>
        <path d="M1221.61 434.23a7.35 7.35 0 107.34 7.34 7.21 7.21 0 00-7.34-7.34z" fill="#ffffff" data-color="1"></path>
        <path fill="#ffffff" d="M1225.49 478.15v128.72h-7.76V478.15h7.76z" data-color="1"></path>
    </g>
</svg>