<svg id="posts" xmlns="http://www.w3.org/2000/svg" viewBox="0 0 483 436.5"><g id="post1"><rect x="0.08" width="482" height="107.5" rx="15.02" opacity="0.1"/><circle cx="68.08" cy="54" r="40.5" opacity="0.1"/><rect x="131" y="19.36" width="321.58" height="30.03" rx="6.95" opacity="0.1"/><rect x="131.21" y="60.09" width="321.58" height="30.03" rx="6.95" opacity="0.05"/></g><g id="post2"><rect y="122.36" width="482" height="107.5" rx="15.02" opacity="0.1"/><rect x="25.92" y="141.72" width="294.66" height="30.03" rx="6.95" opacity="0.1"/><rect x="347.21" y="141.09" width="104.37" height="70.41" rx="6.95" opacity="0.2"/><rect x="26.13" y="182.45" width="294.44" height="30.03" rx="6.95" opacity="0.05"/></g><g id="post3"><rect x="1" y="247.36" width="482" height="189.14" rx="15.02" opacity="0.1"/><rect x="23.21" y="267.09" width="104.37" height="70.41" rx="6.95" opacity="0.2"/><rect x="22.21" y="348.09" width="104.37" height="70.41" rx="6.95" opacity="0.1"/><rect x="154.67" y="266.58" width="294.66" height="30.03" rx="6.95" opacity="0.15"/><rect x="154.67" y="307.58" width="294.66" height="30.03" rx="6.95" opacity="0.1"/><rect x="154.67" y="347.58" width="294.66" height="30.03" rx="6.95" opacity="0.05"/><rect x="153.67" y="386.58" width="294.66" height="30.03" rx="6.95" opacity="0.1"/></g></svg>