<svg id="图层_1" data-name="图层 1" xmlns="http://www.w3.org/2000/svg" viewBox="0 0 111.86 90.93"><path d="M99.91,48q-5.46,4.14-11.22,7.82a51.18,51.18,0,0,1-10.22,5.26c-3,1.06-5,.87-6.07-.57-1-1.81-1-4.43-.12-7.86A71.43,71.43,0,0,1,76.12,42a88.81,88.81,0,0,0,4.24-10.3,31,31,0,0,0,1.72-10.58,21.16,21.16,0,0,0-3.3-10.63A16.88,16.88,0,0,0,70.44,4,32.68,32.68,0,0,0,58.06,1.86a41.38,41.38,0,0,0-13.53,2.5,29.31,29.31,0,0,0-9.57,6,28.79,28.79,0,0,0-6.87,10.11A22,22,0,0,0,27,26.3c-.22,2.36-.35,4.49-.36,6.42s0,2.93,0,3c-1.86,1.28-4,2.86-6.36,4.72a53,53,0,0,0-7,6.68A68.32,68.32,0,0,0,7,55.61a28.88,28.88,0,0,0-3.12,6.48c-.21.61,0,2.29.51,5.09a28.23,28.23,0,0,0,4.3,9.59q3.51,5.43,11.23,10c.05,0,.19-.06.4-.3a2.67,2.67,0,0,0,.37-.38,24.91,24.91,0,0,1-1.84-2A24.43,24.43,0,0,1,15.62,79a12.42,12.42,0,0,1-1.34-6.56q.32-4.68,6-8.63c3.8-2.63,10.29-4.93,19.46-6.85a19.85,19.85,0,0,0,6.78-3,23.78,23.78,0,0,0,3-2.29,34.12,34.12,0,0,0,3.86,20A52.28,52.28,0,0,0,64.27,85.38L107.78,41.9Q104.51,44.54,99.91,48ZM44.37,24.37c-.68,1.77-1.34,3.56-2,5.36s-1,2.81-1.06,3.05a17.15,17.15,0,0,0,1.22,1.46,9.25,9.25,0,0,1,1.25,1.48,9.63,9.63,0,0,1-.73,3,6.16,6.16,0,0,1-3.17,3.6,9.46,9.46,0,0,1-5.78.46A13.8,13.8,0,0,1,29.78,41a12.65,12.65,0,0,1-1.7-1.23L45.4,20.89l.07.61Z" fill="#fff"/></svg>