<svg id="图层_1" data-name="图层 1" xmlns="http://www.w3.org/2000/svg" viewBox="0 0 541.34 84.97"><path d="M594.21,87.7c-1-.24-2.05-.48-3.18-.7a21.54,21.54,0,0,0-4.06-.33,4.93,4.93,0,0,0-3.87,1.44,6.82,6.82,0,0,0-1.67,3.21l-4.13,19.43H559.42l7.91-37.09h17.43l-.45,4.07a18.16,18.16,0,0,1,4.55-3.51,8.59,8.59,0,0,1,3.72-1,14.56,14.56,0,0,1,2.26.19,6.35,6.35,0,0,1,2.25.85Zm-47.86-4.61a3.51,3.51,0,0,0-3.1-1.37,5.62,5.62,0,0,0-3.77,1.37,7.05,7.05,0,0,0-2.22,4l-.07.52h9.45l.08-.52a5.08,5.08,0,0,0-.37-4M561.56,93l-.51,2.51H535.49l-.23,1.1c-.49,2.17-.44,3.73.16,4.7s1.77,1.44,3.54,1.44a5.55,5.55,0,0,0,3-.93,6,6,0,0,0,2.29-2.91h15.65a18,18,0,0,1-8.16,9.67q-5.79,3.33-16.21,3.32a27.72,27.72,0,0,1-7.57-1,13.46,13.46,0,0,1-5.87-3.33,12.31,12.31,0,0,1-3.26-6.13,22.28,22.28,0,0,1,.3-9.42,25.45,25.45,0,0,1,3.36-8.42,21.91,21.91,0,0,1,5.73-6,24.85,24.85,0,0,1,7.68-3.69,32.8,32.8,0,0,1,9.31-1.26q10.56,0,14.55,5.21T561.56,93M523.67,73.66,521.31,84.6h-8L510.89,96c-.34,1.43-.33,2.42,0,3a2.48,2.48,0,0,0,2.18.81l2.07,0a10.1,10.1,0,0,0,2.36-.41l-2.36,10.93c-2.12.45-4.24.82-6.36,1.15a39.07,39.07,0,0,1-5.83.47,24.21,24.21,0,0,1-4.91-.47,10.64,10.64,0,0,1-3.95-1.63,6,6,0,0,1-2.29-3.17,9.85,9.85,0,0,1,0-5.14l3.54-16.84h-4.8l2.36-10.94h4.81l1.25-6,19.21-6.2-2.59,12.18ZM490.06,85.11H474.85c.34-1.72.29-2.87-.15-3.46a3.27,3.27,0,0,0-2.51-.82,5.31,5.31,0,0,0-3.18.74,3.38,3.38,0,0,0-1.25,2,2.36,2.36,0,0,0,0,1.08,1.44,1.44,0,0,0,.59.84,4.59,4.59,0,0,0,1.51.67,19.54,19.54,0,0,0,2.74.52,63.91,63.91,0,0,1,8.57,1.7,14.84,14.84,0,0,1,5.09,2.36,5.67,5.67,0,0,1,2.18,3.32,12,12,0,0,1-.11,4.66,15.82,15.82,0,0,1-2.29,5.46,14,14,0,0,1-4.39,4.14,22.91,22.91,0,0,1-6.83,2.62,43.57,43.57,0,0,1-9.61.92,40.5,40.5,0,0,1-8-.7,14.22,14.22,0,0,1-5.64-2.29,8.18,8.18,0,0,1-3-4.17,12.48,12.48,0,0,1-.11-6.28h16.11c-.3,2-.2,3.37.29,4.06a3.07,3.07,0,0,0,2.74,1.11,4.24,4.24,0,0,0,3.06-.92,4.54,4.54,0,0,0,1.22-2.26,2.7,2.7,0,0,0-.19-1.58c-.22-.52-.87-.9-1.95-1.15l-1-.18-1.33-.29c-.54-.13-1.25-.27-2.11-.45l-3.21-.63a32.26,32.26,0,0,1-5.47-1.55,10.24,10.24,0,0,1-3.47-2.14,5.54,5.54,0,0,1-1.55-3.07,12.33,12.33,0,0,1,.23-4.39,13,13,0,0,1,2.06-4.8,14,14,0,0,1,4.17-4,22.73,22.73,0,0,1,6.35-2.66,33.62,33.62,0,0,1,8.68-1,46.39,46.39,0,0,1,7.73.59,15.85,15.85,0,0,1,5.72,2,7.93,7.93,0,0,1,3.25,3.88,11.09,11.09,0,0,1,.29,6m-45.87,25.64H426.32l7.9-37.09H452.1Zm8.94-42H435.26l2.36-11.37H455.5ZM411.18,85.74a3.31,3.31,0,0,0-.85-1.95,3,3,0,0,0-2.25-.74,4,4,0,0,0-2.7.92,8.12,8.12,0,0,0-1.81,2.29,13.91,13.91,0,0,0-1.18,3.07c-.3,1.13-.54,2.21-.74,3.25s-.43,2.15-.56,3.06a7.8,7.8,0,0,0,0,2.37,2.37,2.37,0,0,0,.89,1.51,3.67,3.67,0,0,0,2.18.52,5,5,0,0,0,2.7-.67,4.93,4.93,0,0,0,1.73-1.81,10.56,10.56,0,0,0,1.07-2.66c.28-1,.53-2.08.78-3.21s.39-2.14.59-3.18a8.92,8.92,0,0,0,.15-2.77m13.07,21.68a26.77,26.77,0,0,1-3.65,9.24,18.89,18.89,0,0,1-5.77,5.61,21.42,21.42,0,0,1-7.64,2.81,54.54,54.54,0,0,1-9.23.74,37.62,37.62,0,0,1-9-.89,14,14,0,0,1-5.53-2.55,7.86,7.86,0,0,1-2.7-4,13.44,13.44,0,0,1-.37-5.13H398a2,2,0,0,0,.51,2.14,3.68,3.68,0,0,0,2.66.81,5.31,5.31,0,0,0,3.81-1.36q1.44-1.36,2.18-4.92l1-4.65H408a13.35,13.35,0,0,1-6.13,3.88,24.16,24.16,0,0,1-6.42.92,16.91,16.91,0,0,1-5.39-.88,10.65,10.65,0,0,1-4.55-3,11.62,11.62,0,0,1-2.62-5.47,20.07,20.07,0,0,1,.37-8.42,33.51,33.51,0,0,1,3.14-8.93,22,22,0,0,1,4.76-6.17,18.2,18.2,0,0,1,5.95-3.54,19.59,19.59,0,0,1,6.68-1.15,13.58,13.58,0,0,1,5.8,1.15,7.21,7.21,0,0,1,3.66,4h.15l1.18-4.07h16.84ZM367,83.09a3.5,3.5,0,0,0-3.1-1.37,5.63,5.63,0,0,0-3.77,1.37,7.11,7.11,0,0,0-2.22,4l-.07.52h9.45l.08-.52c.39-1.77.27-3.11-.37-4M382.22,93l-.51,2.51H356.15l-.22,1.1c-.5,2.17-.44,3.73.15,4.7s1.77,1.44,3.54,1.44a5.53,5.53,0,0,0,3-.93,6,6,0,0,0,2.29-2.91h15.66a18.07,18.07,0,0,1-8.17,9.67q-5.79,3.33-16.21,3.32a27.77,27.77,0,0,1-7.57-1,13.46,13.46,0,0,1-5.87-3.33,12.22,12.22,0,0,1-3.25-6.13,22.26,22.26,0,0,1,.29-9.42,25.45,25.45,0,0,1,3.36-8.42,21.91,21.91,0,0,1,5.73-6,24.85,24.85,0,0,1,7.68-3.69,32.9,32.9,0,0,1,9.31-1.26q10.56,0,14.55,5.21T382.22,93M320.73,70.42a10.28,10.28,0,0,0-4.76-.89h-1.92l-2.22,10.12h1.77a11.47,11.47,0,0,0,5.33-1.18,5.65,5.65,0,0,0,2.88-4.21q.58-3-1.08-3.84m22,.52a20.38,20.38,0,0,1-1.47,4.28,14.49,14.49,0,0,1-2.51,3.62A15.09,15.09,0,0,1,335,81.68a22,22,0,0,1-5.47,2v.15a9.53,9.53,0,0,1,5.59,2A6.6,6.6,0,0,1,337,90.58a27.87,27.87,0,0,1-.15,4c-.14,1.51-.29,3.12-.44,4.84s-.27,3.55-.37,5.47a39.23,39.23,0,0,0,.15,5.91H315.53a28.06,28.06,0,0,1-.11-3.44c0-1.3.07-2.63.14-4s.18-2.72.3-4.1.21-2.63.26-3.76a3.37,3.37,0,0,0-.81-2.85,5.56,5.56,0,0,0-3.55-.85h-2.44l-4.06,19H284.58l11.3-53.33h31.54a35.8,35.8,0,0,1,7.53.7,12.48,12.48,0,0,1,5.24,2.29,7.65,7.65,0,0,1,2.67,4.17,14.7,14.7,0,0,1-.08,6.36M170.24,83.09a3.5,3.5,0,0,0-3.1-1.37,5.65,5.65,0,0,0-3.77,1.37,7.11,7.11,0,0,0-2.22,4l-.07.52h9.46l.07-.52c.39-1.77.27-3.11-.37-4M185.46,93l-.52,2.51H159.38l-.22,1.1c-.49,2.17-.44,3.73.15,4.7s1.77,1.44,3.54,1.44a5.53,5.53,0,0,0,3-.93,5.85,5.85,0,0,0,2.29-2.91h15.66a18.09,18.09,0,0,1-8.16,9.67q-5.81,3.33-16.22,3.32a27.77,27.77,0,0,1-7.57-1,13.58,13.58,0,0,1-5.87-3.33,12.22,12.22,0,0,1-3.25-6.13A22.26,22.26,0,0,1,143,92a25.46,25.46,0,0,1,3.37-8.42,21.88,21.88,0,0,1,5.72-6,25,25,0,0,1,7.68-3.69,32.9,32.9,0,0,1,9.31-1.26q10.56,0,14.55,5.21T185.46,93m-42.84-6.87-5.25,24.67H119.5l4.87-23q1-4.29-2.36-4.29a4.25,4.25,0,0,0-2.7,1,5.2,5.2,0,0,0-1.66,3.18l-5,23.12H94.82l11.31-53.33H124l-4.5,21.27h.15a28.3,28.3,0,0,1,2.65-2.62,13.83,13.83,0,0,1,2.89-1.92A14.44,14.44,0,0,1,128.54,73a18.3,18.3,0,0,1,4.1-.41,15.59,15.59,0,0,1,5,.74,8,8,0,0,1,3.55,2.32A8.21,8.21,0,0,1,143,79.8a18.29,18.29,0,0,1-.33,6.28M103.17,71.75H90l-8.27,39H60.63l8.27-39H55.75l3-14.33H106.2Zm122.41,5.37a8.41,8.41,0,0,1,1.21,1.48,9.6,9.6,0,0,1-.72,3,6.24,6.24,0,0,1-3.17,3.61,9.58,9.58,0,0,1-5.78.45,13.54,13.54,0,0,1-4.33-1.79,12.71,12.71,0,0,1-1.7-1.23l17.32-18.9.07.61-1.06,2.88c-.67,1.76-1.34,3.55-2,5.35s-1,2.81-1.06,3a15,15,0,0,0,1.21,1.46m37.84-2.55A30.7,30.7,0,0,0,265.13,64a21.05,21.05,0,0,0-3.25-10.62,16.79,16.79,0,0,0-8.34-6.51,32.32,32.32,0,0,0-12.39-2.11,40.87,40.87,0,0,0-13.52,2.49,29.22,29.22,0,0,0-9.57,6,28.57,28.57,0,0,0-6.87,10.11A21.72,21.72,0,0,0,210,69.18c-.23,2.36-.35,4.49-.37,6.42s0,2.93,0,3q-2.79,1.94-6.37,4.72a53.09,53.09,0,0,0-7,6.68,65.89,65.89,0,0,0-6.17,8.49A28.85,28.85,0,0,0,187,105c-.21.6,0,2.28.5,5.08a28.44,28.44,0,0,0,4.3,9.59q3.51,5.43,11.24,10c0,.05.19,0,.4-.3a3.64,3.64,0,0,0,.36-.38c-.08-.05-.71-.73-1.84-2.05a24.47,24.47,0,0,1-3.26-5.06,12.28,12.28,0,0,1-1.33-6.56q.31-4.69,6-8.63t19.46-6.85a20,20,0,0,0,6.77-3,24,24,0,0,0,3-2.29,34.13,34.13,0,0,0,3.87,20,51.89,51.89,0,0,0,10.89,13.67l43.49-43.48q-3.26,2.63-7.86,6.14-5.46,4.13-11.22,7.82A52.12,52.12,0,0,1,261.53,104c-3,1.06-5,.87-6.07-.57-1-1.8-1-4.43-.12-7.86a70.34,70.34,0,0,1,3.83-10.7,91.87,91.87,0,0,0,4.25-10.3" transform="translate(-55.75 -44.74)" fill="#fff"/></svg>