<?xml version="1.0" encoding="UTF-8"?><svg id="Layer_1" xmlns="http://www.w3.org/2000/svg" viewBox="0 0 3000 3000"><path d="M1697.91,192.19c6.63-32.82-28.16-58.39-57.46-42.2-119.42,65.96-382.75,239.89-516.38,501.89-186.14,364.97-65.69,695.27,76.64,1279.23,107.62,441.5,55.63,770.34,23.87,904.51-6.46,27.28,21.4,49.98,46.84,38.18,134.75-62.49,413.14-238.82,533.32-479.18,182.49-364.97,47.45-930.68-100.37-1386.89-108.85-335.96-35.42-672.21-6.47-815.54Z" fill="#ed3b51"/><path d="M2453.44,514.2c4.79-23.98-20.32-42.66-41.48-30.83-86.19,48.19-276.27,175.26-372.72,366.68-134.35,266.64-47.42,507.96,55.32,934.59,77.68,322.56,40.16,562.81,17.23,660.83-4.66,19.93,15.45,36.51,33.81,27.89,97.27-45.65,298.21-174.48,384.95-350.08,131.72-266.64,34.25-679.94-72.45-1013.25-78.57-245.45-25.57-491.11-4.67-595.83Z" fill="#f95065"/><path d="M805.82,514.2c4.79-23.98-20.32-42.66-41.48-30.83-86.19,48.19-276.27,175.26-372.72,366.68-134.35,266.64-47.42,507.96,55.32,934.59,77.68,322.56,40.16,562.81,17.23,660.83-4.66,19.93,15.45,36.51,33.81,27.89,97.27-45.65,298.21-174.48,384.95-350.08,131.72-266.64,34.25-679.94-72.45-1013.25-78.57-245.45-25.57-491.11-4.67-595.83Z" fill="#f95065"/></svg>