<?xml version="1.0" encoding="utf-8"?>
<!-- Generator: Adobe Illustrator 19.2.1, SVG Export Plug-In . SVG Version: 6.00 Build 0)  -->
<svg version="1.1" id="layer" xmlns="http://www.w3.org/2000/svg" xmlns:xlink="http://www.w3.org/1999/xlink" x="0px" y="0px"
	 viewBox="0 0 652 652" style="enable-background:new 0 0 652 652;" xml:space="preserve">
<style type="text/css">
	.st0{fill:#10A3DD;}
</style>
<g>
	<path class="st0" d="M487.3,379.9c-2.8,5.7-10.4,8.4-17.2,8.4h-43.1c-12.2-0.6-20.3-2.4-24.5-5.1c-6.5-4.6-10.3-12.9-11.4-25.1
		c-0.6-6.8-0.3-14.1,0.9-22c1.2-7.8,3.2-15.4,5.8-22.6c2.7-7.3,5.8-13.3,9.5-18.4c3.7-5,7.6-8.3,11.8-9.9c9.4-3.5,23.9-3.1,34.3-3.1
		c11.2,0,27.5-0.5,38.3,3.1c8.3,3,13,10.3,14,21.9c0.5,5.3-0.4,14.1-1.4,19.5c-0.9,5.4-2,9.3-2.6,11.8c-0.8,2.4-3.4,3.5-9.6,3.5
		c-22.5,0-45,0-67.5,0c-1.7,5.7-1.4,13.5-1.1,16.7c0.7,7.5,7.3,8.6,16.2,8.6l52.8,0C491.2,371.1,489.7,375.1,487.3,379.9
		 M428.9,324.8h46c0.8-3.1,1.8-9.4,1.6-12c-0.7-8.1-7.7-12.1-21-12.1c-5.3,0-9.6,0.6-12.9,2c-7.4,3-8.6,7.2-10.3,11.5
		C431.1,317.5,430.2,320.5,428.9,324.8"/>
	<path class="st0" d="M311.8,304.1c1-5.8,3.3-18.3,4.1-22.2c3.6,0,10.5,0,13.4,0c3.7-0.2,5.2-0.9,6.1-2.1c4.7-6.8,8.9-13,12-17.4h19
		c-1,6.5-2.1,13-3.2,19.5h37.2c-0.8,4.5-1.9,10.3-3.3,17.3c-0.6,1.8-2.1,3-4,4c-1.6,0.9-6.5,0.9-9.5,0.9c-11.1,0-17,0.1-20.2,0.1
		c-4.9,0-5.2,1.4-6,5.5c-3.4,16.8-6.8,33.6-10.2,50.3c-0.6,3,1.1,7.6,6.2,7.6h31.3c-0.7,3.8-2.2,11.4-3.3,15.8
		c-0.7,3.4-5.1,5.2-10.1,5.4l-53.6,0.1c-4.8,0-10.3-4.1-9.3-8.4c4.7-25.5,9.7-51,14.6-76.4H311.8z"/>
	<path class="st0" d="M233.1,281.6c3.7,0,6.8,1.8,8.7,4.4c1.1,1.5,4.3,2,7.3-0.4c2.9-2.2,6.3-4,10.4-4h25.3c5.4,0,10.4,1.4,15.1,3.9
		c4.5,3.1,7.1,7.1,7.5,12c0.2,1.9-0.1,4.4-0.8,7.5c-5.9,27.7-12,55.4-17,83.3c-10.9-0.1-20,0-26.9,0c-1.6,0-3.4-1-4.6-2.2
		c-1.5-1.6-1.2-3.2-0.8-4.8c4.7-23,9.2-46,13.9-68.9c0.5-2.6-1.1-5.6-2.3-6.8c-1.4-1.6-5.7-2.4-13.1-2.4c-5.5,0-9.5,0.9-12.1,1.8
		c-2.5,1-4.1,2.7-4.8,6.1c-5.7,23.7-11.5,51.6-17.4,77.4c-8.2,0-17.3,0-25.6-0.2c-2.4-0.1-4.3-0.4-5.9-1.3c-1.8-1-3.4-3.1-3-5.3
		c7-33.4,14.5-66.7,21.7-100.1C216.5,281.4,223.8,281.6,233.1,281.6"/>
	<path class="st0" d="M546.3,281.6c3.6,0,6.8,1.8,8.7,4.4c1.1,1.5,4.3,2,7.3-0.4c2.9-2.2,6.2-4,10.3-4H598c5.4,0,10.4,1.4,15.1,3.9
		c4.6,3.1,7.1,7.1,7.5,12c0.2,1.9-0.1,4.4-0.8,7.5c-5.9,27.7-12,55.4-17,83.3c-10.8-0.1-20,0-27,0c-1.6,0-3.4-1-4.6-2.2
		c-1.5-1.6-1.1-3.2-0.8-4.8c4.7-23,9.2-46,13.9-68.9c0.5-2.6-1.1-5.6-2.2-6.8c-1.4-1.6-5.8-2.4-13.1-2.4c-5.5,0-9.6,0.9-12.1,1.8
		c-2.5,1-4.1,2.7-4.8,6.1c-5.7,23.7-11.5,51.6-17.5,77.4c-8.2,0-17.3,0-25.6-0.2c-2.3-0.1-4.3-0.4-5.9-1.3c-1.8-1-3.4-3.1-3-5.3
		c6.9-33.4,14.5-66.7,21.7-100.1C529.7,281.4,537,281.6,546.3,281.6"/>
	<path class="st0" d="M164,271.5c0.4-5.2,2-11.6,2.6-15h24.3c6.4,0,8.6,0.8,8.1,5.3c-1,5-1.8,9.2-2.7,13.7h-24.1
		C166.8,275.5,163.7,275.5,164,271.5"/>
	<path class="st0" d="M186.8,282.4c4.5,0,7.1,3.5,6.6,6.4c-6.3,33.2-12.7,66.4-19.6,99.4c-5.7,0.1-15.6,0.1-23.5,0.1
		c-5.5,0-8.3-3.9-7.7-7.3c6.2-32.9,13-65.8,19.6-98.6C170.3,282.4,175.4,282.4,186.8,282.4"/>
	<path class="st0" d="M53,256.1c3.7,0,4.7,2.1,5.2,4.8c3.8,28.7,7.4,57.5,11.1,86.3c19.1-30.4,38.4-60.7,57.3-91.1
		c3.9,0,20.8,0.1,28,0c7.2-0.2,6.8,5.2,6,6.5c-26.3,42-53.1,83.9-79.7,125.7h-34c-4.3,0-9.5-1.7-10.1-5.6
		c-5.4-42.2-10.9-84.3-16.2-126.5C25.2,256.1,41.7,256.2,53,256.1"/>
</g>
</svg>
