<svg id="layer" xmlns="http://www.w3.org/2000/svg" viewBox="0 0 600.06 132.81"><path d="M487.3,379.9c-2.8,5.7-10.4,8.4-17.2,8.4H427c-12.2-.6-20.3-2.4-24.5-5.1-6.5-4.6-10.3-12.9-11.4-25.1a92.34,92.34,0,0,1,.9-22,120.83,120.83,0,0,1,5.8-22.6,75.45,75.45,0,0,1,9.5-18.4c3.7-5,7.6-8.3,11.8-9.9,9.4-3.5,23.9-3.1,34.3-3.1,11.2,0,27.5-.5,38.3,3.1,8.3,3,13,10.3,14,21.9.5,5.3-.4,14.1-1.4,19.5s-2,9.3-2.6,11.8c-.8,2.4-3.4,3.5-9.6,3.5H424.6c-1.7,5.7-1.4,13.5-1.1,16.7.7,7.5,7.3,8.6,16.2,8.6h52.8a92.43,92.43,0,0,1-5.2,12.7m-58.4-55.1h46c.8-3.1,1.8-9.4,1.6-12-.7-8.1-7.7-12.1-21-12.1-5.3,0-9.6.6-12.9,2-7.4,3-8.6,7.2-10.3,11.5-1.2,3.3-2.1,6.3-3.4,10.6" transform="translate(-20.6 -256.09)" fill="#10a3dd"/><path d="M311.8,304.1c1-5.8,3.3-18.3,4.1-22.2h13.4c3.7-.2,5.2-.9,6.1-2.1,4.7-6.8,8.9-13,12-17.4h19c-1,6.5-2.1,13-3.2,19.5h37.2c-.8,4.5-1.9,10.3-3.3,17.3-.6,1.8-2.1,3-4,4-1.6.9-6.5.9-9.5.9-11.1,0-17,.1-20.2.1-4.9,0-5.2,1.4-6,5.5q-5.1,25.2-10.2,50.3c-.6,3,1.1,7.6,6.2,7.6h31.3c-.7,3.8-2.2,11.4-3.3,15.8-.7,3.4-5.1,5.2-10.1,5.4l-53.6.1c-4.8,0-10.3-4.1-9.3-8.4,4.7-25.5,9.7-51,14.6-76.4Z" transform="translate(-20.6 -256.09)" fill="#10a3dd"/><path d="M233.1,281.6a10.69,10.69,0,0,1,8.7,4.4c1.1,1.5,4.3,2,7.3-.4,2.9-2.2,6.3-4,10.4-4h25.3a31.72,31.72,0,0,1,15.1,3.9c4.5,3.1,7.1,7.1,7.5,12a24.45,24.45,0,0,1-.8,7.5c-5.9,27.7-12,55.4-17,83.3-10.9-.1-20,0-26.9,0a7.14,7.14,0,0,1-4.6-2.2c-1.5-1.6-1.2-3.2-.8-4.8,4.7-23,9.2-46,13.9-68.9.5-2.6-1.1-5.6-2.3-6.8-1.4-1.6-5.7-2.4-13.1-2.4a37.07,37.07,0,0,0-12.1,1.8c-2.5,1-4.1,2.7-4.8,6.1-5.7,23.7-11.5,51.6-17.4,77.4-8.2,0-17.3,0-25.6-.2A12.87,12.87,0,0,1,190,387c-1.8-1-3.4-3.1-3-5.3,7-33.4,14.5-66.7,21.7-100.1,7.8-.2,15.1,0,24.4,0" transform="translate(-20.6 -256.09)" fill="#10a3dd"/><path d="M546.3,281.6A10.83,10.83,0,0,1,555,286c1.1,1.5,4.3,2,7.3-.4,2.9-2.2,6.2-4,10.3-4H598a31.72,31.72,0,0,1,15.1,3.9q6.9,4.65,7.5,12a24.45,24.45,0,0,1-.8,7.5c-5.9,27.7-12,55.4-17,83.3-10.8-.1-20,0-27,0a7.14,7.14,0,0,1-4.6-2.2c-1.5-1.6-1.1-3.2-.8-4.8,4.7-23,9.2-46,13.9-68.9.5-2.6-1.1-5.6-2.2-6.8-1.4-1.6-5.8-2.4-13.1-2.4a36.59,36.59,0,0,0-12.1,1.8c-2.5,1-4.1,2.7-4.8,6.1-5.7,23.7-11.5,51.6-17.5,77.4-8.2,0-17.3,0-25.6-.2a13.18,13.18,0,0,1-5.9-1.3c-1.8-1-3.4-3.1-3-5.3,6.9-33.4,14.5-66.7,21.7-100.1,7.9-.2,15.2,0,24.5,0" transform="translate(-20.6 -256.09)" fill="#10a3dd"/><path d="M164,271.5c.4-5.2,2-11.6,2.6-15h24.3c6.4,0,8.6.8,8.1,5.3-1,5-1.8,9.2-2.7,13.7H172.2c-5.4,0-8.5,0-8.2-4" transform="translate(-20.6 -256.09)" fill="#10a3dd"/><path d="M186.8,282.4c4.5,0,7.1,3.5,6.6,6.4-6.3,33.2-12.7,66.4-19.6,99.4-5.7.1-15.6.1-23.5.1-5.5,0-8.3-3.9-7.7-7.3,6.2-32.9,13-65.8,19.6-98.6h24.6" transform="translate(-20.6 -256.09)" fill="#10a3dd"/><path d="M53,256.1c3.7,0,4.7,2.1,5.2,4.8,3.8,28.7,7.4,57.5,11.1,86.3,19.1-30.4,38.4-60.7,57.3-91.1,3.9,0,20.8.1,28,0s6.8,5.2,6,6.5c-26.3,42-53.1,83.9-79.7,125.7h-34c-4.3,0-9.5-1.7-10.1-5.6-5.4-42.2-10.9-84.3-16.2-126.5,4.6-.1,21.1,0,32.4-.1" transform="translate(-20.6 -256.09)" fill="#10a3dd"/></svg>