<?xml version="1.0" encoding="utf-8"?>
<!-- Generator: Adobe Illustrator 26.0.2, SVG Export Plug-In . SVG Version: 6.00 Build 0)  -->
<svg version="1.1" id="Layer_1" xmlns="http://www.w3.org/2000/svg" xmlns:xlink="http://www.w3.org/1999/xlink" x="0px" y="0px"
	 viewBox="0 0 3000 3000" style="enable-background:new 0 0 3000 3000;" xml:space="preserve">
<style type="text/css">
	.st0{fill:#D2D936;}
	.st1{display:none;fill:#12A6AA;}
	.st2{display:none;fill:#FFFFFF;}
	.st3{fill:#12A6AA;}
	.st4{display:none;fill:#D40011;}
</style>
<image style="display:none;overflow:visible;" width="170" height="170" xlink:href="9C0EC0B7.jpg"  transform="matrix(10.9529 0 0 10.9529 558 567)">
</image>
<path class="st0" d="M1614.5,2705.3c-1.6,9.7-3.1,19.4-4.5,29c-30,1.8-60.2,2.7-90.6,2.7C698,2737,32,2071,32,1249.5
	c0-152.4,22.9-299.4,65.5-437.9C261.3,821.7,1913.2,873.3,1614.5,2705.3z"/>
<path class="st1" d="M2113,1386c0,324.4-253.3,589.7-572.9,608.9c0.6-3.9,1.2-7.9,1.9-11.9c122.5-751.3-555-772.4-622.1-776.6
	c55.9-181.8,194.6-327.5,372.1-392.9c65.8-24.3,136.9-37.5,211.1-37.5c83.1,0,162.3,16.6,234.5,46.7
	C1958,914.6,2113,1132.2,2113,1386z"/>
<path class="st2" d="M2417,2439c0,0-991.8,319.7-876.9-444.1c0.6-3.9,1.2-7.9,1.9-11.9c122.5-751.3-555-772.4-622.1-776.6
	c-2.5-0.1-4.1-0.3-4.9-0.4l-316,10l136-414l556.9,11.5l445.6,9.2L2284,834L2417,2439z"/>
<path class="st3" d="M2963,1531.2c0,652.9-530,1176.8-1170.4,1225.3c67.5-304.6,264.2-1485.6-1040.4-1996.5
	c227.1-285.6,577.6-468.7,970.9-468.7C2407.9,291.2,2963,846.3,2963,1531.2z"/>
<path class="st1" d="M1623.4,2008.5c-12.8,1-25.8,1.5-38.9,1.5c-280.8,0-508.5-227.7-508.5-508.5c0-119.6,41.2-229.5,110.3-316.3
	C1721.4,1394.8,1651.1,1883.6,1623.4,2008.5z"/>
<path class="st4" d="M1623.4,2008.5c-4.2,18.9-7.4,29.5-7.4,29.5l-3,2l-387,173L459,1157c0,0,93-214,719,25c2.8,1.1,5.6,2.1,8.3,3.2
	C1721.4,1394.8,1651.1,1883.6,1623.4,2008.5z"/>
</svg>
