<svg id="Layer_1" data-name="Layer 1" xmlns="http://www.w3.org/2000/svg" viewBox="0 0 963.21 100.89"><defs><style>.cls-1{fill:#fff;}</style></defs><path class="cls-1" d="M1961,1515.4c-1.54,5.18-2.43,10.67-4.74,15.49-8.88,18.56-24.61,27.06-44.68,27.95-12.08.54-24.21.11-36.32.09a14.38,14.38,0,0,1-2.24-.41v-4c0-29.39.06-58.79-.08-88.18,0-3.66,1.1-4.56,4.64-4.47,12.47.32,25-.21,37.42.58,23.32,1.47,42.53,17.63,45.44,40.93,0,.31.37.58.56.88Zm-72.06,29c8.22,0,16.08.4,23.88-.08a34.45,34.45,0,0,0,32.32-34.26c0-17.31-13.45-31.89-31.37-33.38-7.06-.59-14.21-.14-21.31-.42-3-.11-3.79.91-3.77,3.8.11,20.33,0,40.66.06,61C1888.7,1542,1888.81,1543,1888.89,1544.39Z" transform="translate(-997.74 -1460.17)"/><path class="cls-1" d="M1071.61,1500.66c-1,3.06-1.79,5.39-2.56,7.72-5.26,15.88-10.59,31.75-15.72,47.68-.84,2.62-2.06,3.43-4.74,3.33-5.48-.21-11-.15-16.47,0-2.16.05-3.32-.48-4-2.71q-14.68-45.29-29.54-90.51a37.75,37.75,0,0,1-.8-4.23h15.9c9.33,0,9.31,0,12,8.95q7,23.31,14.15,46.61c.29.94.65,1.86,1.3,3.73,2-5.73,3.76-10.65,5.46-15.58,4.63-13.49,9.34-27,13.8-40.49.87-2.67,2.19-3.39,4.81-3.27a106,106,0,0,0,12.73,0c3.13-.24,4.34,1.05,5.26,3.8,5.72,17,11.58,34,17.42,51,.42,1.24,1,2.45,1.79,4.59,3.82-12.58,7.34-24.16,10.85-35.74,2-6.76,4.21-13.5,6.06-20.31.72-2.67,2-3.45,4.7-3.38,7.1.19,14.2.07,21.92.07-.41,1.64-.64,2.9-1,4.12q-14.74,45.07-29.48,90.15c-.79,2.43-1.86,3.31-4.46,3.2-5.48-.21-11-.22-16.47,0-2.62.11-3.64-.82-4.42-3.22-5.58-17.22-11.32-34.39-17-51.58C1072.68,1503.55,1072.28,1502.52,1071.61,1500.66Z" transform="translate(-997.74 -1460.17)"/><path class="cls-1" d="M1463.31,1558.33v-4.22c0-29.16.06-58.31-.08-87.46,0-3.58.63-5,4.66-4.84,14.59.47,29.29-.47,43.76,1,18.35,1.81,32.73,11.06,39.7,28.64s5,34.47-7,49.48a45,45,0,0,1-33.3,17.22C1495.38,1559.05,1479.63,1558.33,1463.31,1558.33Zm24.5-21.37c6,0,11.45.23,16.91,0A26.93,26.93,0,0,0,1530,1514.5a26,26,0,0,0-16.73-28.8c-8.29-3.21-16.88-1.56-25.49-2Z" transform="translate(-997.74 -1460.17)"/><path class="cls-1" d="M1270.05,1462.42c.42-.21.64-.41.86-.4,16.71.15,33.52-.75,50.12.74,26.06,2.33,39.81,27.62,27.58,49.52-2.76,4.93-7.33,8.85-11.46,13.7l22,32.7c-9.63,0-18.46.07-27.27-.1-.91,0-2-1.28-2.64-2.22-5.13-7.64-10.07-15.39-15.31-22.95a6.57,6.57,0,0,0-4.41-2.4c-5-.3-10-.11-15.39-.11v27.53h-24.1Zm24,21.21c0,7.9-.06,15.79.11,23.67,0,.6,1.67,1.65,2.58,1.68a112.81,112.81,0,0,0,14.94-.08c3.74-.39,7.77-1.2,10.94-3.05,6.9-4,7.83-13,2-18-2.35-2-5.59-3.8-8.57-4C1309,1483.24,1301.75,1483.63,1294.09,1483.63Z" transform="translate(-997.74 -1460.17)"/><path class="cls-1" d="M1200.65,1460.17c29.24,0,51.45,21.64,51.46,50.14,0,28.78-22.34,50.39-52.09,50.36-29,0-51-21.93-51-50.62C1149.06,1481.57,1171.2,1460.16,1200.65,1460.17Zm-.13,77.71c15.34,0,26.85-11.78,26.87-27.43s-11.58-27.68-26.68-27.79a27.2,27.2,0,0,0-27.19,27.79C1173.7,1526.11,1185.33,1537.91,1200.52,1537.88Z" transform="translate(-997.74 -1460.17)"/><path class="cls-1" d="M1853.22,1559a90.66,90.66,0,0,1-10.51-.13,7.31,7.31,0,0,1-4.09-2.69q-25.42-30.06-50.7-60.24a13.68,13.68,0,0,0-4.3-3.77v66.61h-15.19v-96.79c3.55,0,7-.22,10.45.12,1.2.12,2.47,1.47,3.36,2.54q26.31,31.5,52.53,63.09c.78.94,1.6,1.84,3,3.47v-68.93h15.43Z" transform="translate(-997.74 -1460.17)"/><path class="cls-1" d="M1746.13,1462.18c0,2.74,0,5.2,0,7.67,0,16.63.25,33.26-.25,49.88-.47,15.44-6.38,28.54-20.85,35.83-15.28,7.69-31,7.42-45.79-1.44-12.91-7.73-18.1-20.34-18.5-34.66-.52-18.6-.13-37.23-.12-55.84a9.14,9.14,0,0,1,.26-1.39H1676c.07,1.42.19,2.85.19,4.29q0,24.2,0,48.39c0,8.41,1.56,16.4,7.45,22.81,7.83,8.51,17.72,10.41,28.44,7.13,11.13-3.42,16.4-12,18.08-22.95a66,66,0,0,0,.5-9.65c0-15.14,0-30.27,0-45.41v-4.66Z" transform="translate(-997.74 -1460.17)"/><path class="cls-1" d="M1447,1537.07v21.4H1375.1v-96.3H1399v74.9Z" transform="translate(-997.74 -1460.17)"/><path class="cls-1" d="M1645.84,1462.17v14.14h-4.47c-15,0-30,.07-44.94-.06-2.9,0-3.93.76-3.87,3.75.18,8.66.07,17.32.07,26.38h46.89v14.14h-46.87v38.18H1577.2v-96.53Z" transform="translate(-997.74 -1460.17)"/></svg>